<svg width="117" height="77" viewBox="0 0 117 77" fill="none" xmlns="http://www.w3.org/2000/svg">
<circle opacity="0.04" cx="82" cy="38" r="35" fill="#084ef2"/>
<path d="M14.3333 34.3336C14.597 34.3336 14.8548 34.4118 15.0741 34.5583C15.2934 34.7048 15.4643 34.9131 15.5652 35.1567C15.6661 35.4003 15.6925 35.6684 15.641 35.9271C15.5896 36.1857 15.4626 36.4233 15.2761 36.6098C15.0897 36.7962 14.8521 36.9232 14.5935 36.9747C14.3348 37.0261 14.0667 36.9997 13.8231 36.8988C13.5795 36.7979 13.3712 36.627 13.2247 36.4077C13.0782 36.1884 13 35.9307 13 35.667C13 35.3133 13.1405 34.9742 13.3905 34.7241C13.6406 34.4741 13.9797 34.3336 14.3333 34.3336Z" fill="#084ef2"/>
<path d="M67.6673 61C67.931 61 68.1888 61.0782 68.4081 61.2247C68.6273 61.3712 68.7982 61.5795 68.8992 61.8231C69.0001 62.0667 69.0265 62.3348 68.975 62.5935C68.9236 62.8521 68.7966 63.0897 68.6101 63.2761C68.4237 63.4626 68.1861 63.5896 67.9274 63.641C67.6688 63.6925 67.4007 63.6661 67.1571 63.5652C66.9134 63.4643 66.7052 63.2934 66.5587 63.0741C66.4122 62.8548 66.334 62.597 66.334 62.3333C66.334 61.9797 66.4745 61.6406 66.7245 61.3905C66.9746 61.1405 67.3137 61 67.6673 61Z" fill="#084ef2"/>
<path d="M75.6667 22.3336H6.33333C3.38781 22.3336 1 24.7214 1 27.6669V70.3336C1 73.2791 3.38781 75.6669 6.33333 75.6669H75.6667C78.6122 75.6669 81 73.2791 81 70.3336V27.6669C81 24.7214 78.6122 22.3336 75.6667 22.3336Z" stroke="#084ef2" stroke-linecap="round" stroke-linejoin="round"/>
<path d="M41.0007 59.6668C46.8917 59.6668 51.6673 54.8911 51.6673 49.0001C51.6673 43.1091 46.8917 38.3334 41.0007 38.3334C35.1096 38.3334 30.334 43.1091 30.334 49.0001C30.334 54.8911 35.1096 59.6668 41.0007 59.6668Z" stroke="#084ef2" stroke-linecap="round" stroke-linejoin="round"/>
<path d="M6.33398 11.6665H75.6673" stroke="#084ef2" stroke-linecap="round" stroke-linejoin="round"/>
<path d="M17.0005 1H65.0005" stroke="#084ef2" stroke-linecap="round" stroke-linejoin="round"/>
</svg>
