<svg width="98" height="88" viewBox="0 0 98 88" fill="none" xmlns="http://www.w3.org/2000/svg">
<circle cx="2.41259" cy="2.41259" r="2.41259" fill="#BAC0CB"/>
<circle cx="2.41259" cy="23.1608" r="2.41259" fill="#BAC0CB"/>
<circle cx="25.5732" cy="23.1608" r="2.41259" fill="#BAC0CB"/>
<circle cx="48.7344" cy="23.1608" r="2.41259" fill="#BAC0CB"/>
<circle cx="71.895" cy="23.1608" r="2.41259" fill="#BAC0CB"/>
<circle cx="95.0556" cy="23.1608" r="2.41259" fill="#BAC0CB"/>
<circle cx="2.41259" cy="43.909" r="2.41259" fill="#BAC0CB"/>
<circle cx="25.5732" cy="43.909" r="2.41259" fill="#BAC0CB"/>
<circle cx="48.7344" cy="43.909" r="2.41259" fill="#BAC0CB"/>
<circle cx="71.895" cy="43.909" r="2.41259" fill="#BAC0CB"/>
<circle cx="95.0556" cy="43.909" r="2.41259" fill="#BAC0CB"/>
<circle cx="2.41259" cy="64.6571" r="2.41259" fill="#BAC0CB"/>
<circle cx="25.5732" cy="64.6571" r="2.41259" fill="#BAC0CB"/>
<circle cx="48.7344" cy="64.6571" r="2.41259" fill="#BAC0CB"/>
<circle cx="71.895" cy="64.6571" r="2.41259" fill="#BAC0CB"/>
<circle cx="95.0556" cy="64.6571" r="2.41259" fill="#BAC0CB"/>
<circle cx="2.41259" cy="85.4053" r="2.41259" fill="#BAC0CB"/>
<circle cx="25.5732" cy="85.4053" r="2.41259" fill="#BAC0CB"/>
<circle cx="48.7344" cy="85.4053" r="2.41259" fill="#BAC0CB"/>
<circle cx="71.895" cy="85.4053" r="2.41259" fill="#BAC0CB"/>
<circle cx="95.0556" cy="85.4053" r="2.41259" fill="#BAC0CB"/>
<circle cx="25.5732" cy="2.41252" r="2.41259" fill="#BAC0CB"/>
<circle cx="48.7344" cy="2.41252" r="2.41259" fill="#BAC0CB"/>
<circle cx="71.895" cy="2.41252" r="2.41259" fill="#BAC0CB"/>
<circle cx="95.0556" cy="2.41252" r="2.41259" fill="#BAC0CB"/>
</svg>
