<svg width="59" height="53" viewBox="0 0 59 53" fill="none" xmlns="http://www.w3.org/2000/svg">
<circle opacity="0.1" cx="35" cy="24" r="24" fill="#084ef2"/>
<path d="M31.4813 50.1385L31.5069 50.1535C33.7725 51.5959 36.4623 52.2224 39.1321 51.9296C41.8019 51.6368 44.292 50.4422 46.1911 48.543L47.8422 46.892C48.5795 46.1537 48.9937 45.1528 48.9937 44.1094C48.9937 43.0659 48.5795 42.0651 47.8422 41.3267L40.8861 34.375C40.1478 33.6376 39.147 33.2234 38.1035 33.2234C37.06 33.2234 36.0592 33.6376 35.3209 34.375C34.9558 34.7405 34.5222 35.0306 34.0449 35.2284C33.5676 35.4263 33.056 35.5281 32.5393 35.5281C32.0227 35.5281 31.5111 35.4263 31.0338 35.2284C30.5565 35.0306 30.1229 34.7405 29.7578 34.375L18.6273 23.2424C17.8899 22.504 17.4757 21.5032 17.4757 20.4597C17.4757 19.4162 17.8899 18.4154 18.6273 17.6771C18.9929 17.312 19.2829 16.8784 19.4807 16.4011C19.6786 15.9238 19.7804 15.4122 19.7804 14.8956C19.7804 14.3789 19.6786 13.8673 19.4807 13.39C19.2829 12.9127 18.9929 12.4791 18.6273 12.114L11.6734 5.15158C10.9351 4.41418 9.93426 4 8.89078 4C7.84729 4 6.84647 4.41418 6.10816 5.15158L4.45714 6.80259C2.55832 8.70186 1.36375 11.1917 1.07058 13.8613C0.777402 16.5309 1.40314 19.2207 2.84452 21.4868L2.86159 21.5124C10.484 32.7961 20.1993 42.5136 31.4813 50.1385V50.1385Z" stroke="#084ef2" stroke-width="1.5" stroke-linecap="round" stroke-linejoin="round"/>
</svg>
