<svg width="131" height="30" viewBox="0 0 131 30" fill="none" xmlns="http://www.w3.org/2000/svg">
<path d="M63.9403 27.484H61.6189V12.433H63.8673V14.3788H63.9104C64.2463 13.7184 64.7635 13.1675 65.4013 12.7906C66.039 12.4136 66.7711 12.2262 67.5115 12.2503C70.4045 12.2503 72.2744 14.5418 72.2744 18.0877C72.2744 21.6335 70.4213 23.9353 67.5546 23.9353C66.8285 23.9608 66.1098 23.7818 65.4804 23.4187C64.851 23.0556 64.3362 22.5231 63.9947 21.8818H63.9403V27.484ZM66.897 14.2073C65.1226 14.2073 63.93 15.7671 63.93 18.0886C63.93 20.4466 65.0945 21.9699 66.897 21.9699C68.7397 21.9699 69.8855 20.4831 69.8855 18.0886C69.8855 15.6941 68.7407 14.2073 66.8979 14.2073H66.897ZM50.9784 27.484H48.656V12.433H50.9044V14.3788H50.9475C51.2835 13.7188 51.8006 13.1681 52.4382 12.7913C53.0757 12.4146 53.8075 12.2272 54.5477 12.2512C57.4406 12.2512 59.3105 14.5427 59.3105 18.0886C59.3105 21.6345 57.4575 23.9363 54.5908 23.9363C53.8646 23.9617 53.1459 23.7827 52.5166 23.4196C51.8872 23.0566 51.3724 22.5241 51.0309 21.8827H50.9784V27.484ZM53.935 14.2073C52.1607 14.2073 50.9681 15.7671 50.9681 18.0886C50.9681 20.4466 52.1326 21.9699 53.935 21.9699C55.7778 21.9699 56.9235 20.4831 56.9235 18.0886C56.9235 15.6941 55.7778 14.2073 53.935 14.2073ZM7.70632 29.6796C5.75304 29.6796 4.24006 27.5118 3.1346 25.9323C1.69671 23.7685 0.720795 21.3313 0.267909 18.7731C-0.306766 16.1307 0.0493394 13.3709 1.27594 10.9609C1.88443 9.86755 2.76597 8.95063 3.83453 8.29961C4.90309 7.64859 6.12217 7.2857 7.37281 7.24636H7.45713C8.48454 7.30935 9.49039 7.56852 10.4203 8.00988H10.4297H10.4353H10.4409C11.0211 8.29675 11.6475 8.4785 12.2912 8.54668C12.9015 8.47251 13.4954 8.29777 14.0486 8.02955H14.058H14.0664H14.0711C15.1469 7.5306 16.3061 7.23641 17.4896 7.16205C17.6264 7.16205 17.7866 7.17048 17.9655 7.18641C19.0382 7.22103 20.0882 7.50486 21.0322 8.01543C21.9763 8.52599 22.7886 9.24928 23.4047 10.128C22.4381 10.7266 21.6374 11.5584 21.0761 12.5471C20.5148 13.5358 20.2109 14.6497 20.1924 15.7865C20.1827 16.6623 20.3545 17.5307 20.697 18.3368C21.0394 19.143 21.5451 19.8695 22.1822 20.4706C22.759 21.0266 23.4336 21.4713 24.172 21.7822V21.7897C23.7008 23.2894 23.0029 24.7083 22.1026 25.997C20.791 27.9699 19.5375 29.6056 17.5767 29.6347H17.4662C16.7085 29.6192 15.9639 29.4342 15.2871 29.0932H15.2815C14.4715 28.6972 13.5834 28.4866 12.6818 28.4768C11.7404 28.4808 10.812 28.6962 9.96501 29.1072H9.96033H9.95096H9.94628C9.2771 29.4358 8.54964 29.6291 7.80562 29.6759H7.70632V29.6796ZM85.0724 24C83.5774 24.0604 82.1042 23.6254 80.8819 22.7624C80.365 22.3678 79.9422 21.8632 79.6442 21.2851C79.3463 20.707 79.1806 20.0698 79.1591 19.4198H81.5349C81.7054 20.944 83.195 21.968 85.2438 21.968C87.1934 21.968 88.6079 20.96 88.6079 19.5706C88.6079 18.3678 87.7526 17.6436 85.7487 17.1518L83.7383 16.6674C80.8922 15.9807 79.5666 14.6514 79.5666 12.4854C79.5666 9.8267 81.8881 7.97085 85.211 7.97085C88.4852 7.97085 90.7383 9.78548 90.8114 12.4854H88.4693C88.3307 10.9537 87.0697 10.0028 85.1792 10.0028C83.3242 10.0028 82.0296 10.9575 82.0296 12.3252C82.0296 13.4185 82.8455 14.0658 84.8466 14.5614L86.5554 14.9802C87.8216 15.1987 89.009 15.7437 90.0001 16.5616C90.3583 16.914 90.6378 17.3383 90.8203 17.8066C91.0028 18.2749 91.084 18.7764 91.0587 19.2784C91.0587 22.1928 88.7644 24.0009 85.0714 24.0009L85.0724 24ZM125.902 23.9569C122.613 23.9569 120.57 21.7282 120.57 18.1411C120.504 16.5866 121.009 15.0617 121.99 13.8541C122.469 13.3211 123.058 12.8993 123.718 12.6183C124.377 12.3374 125.089 12.2041 125.806 12.2278C126.5 12.2012 127.193 12.3246 127.836 12.5898C128.478 12.8549 129.056 13.2555 129.53 13.7642C130.48 14.9165 130.969 16.3803 130.901 17.8722V18.6685H122.913V18.8081C122.869 19.2288 122.915 19.654 123.05 20.0552C123.184 20.4564 123.402 20.8241 123.69 21.1337C123.979 21.4433 124.33 21.6876 124.72 21.8501C125.111 22.0126 125.532 22.0895 125.955 22.0757C126.511 22.1223 127.067 21.9858 127.539 21.687C128.011 21.3881 128.372 20.9434 128.567 20.4204H130.772C130.688 20.9276 130.505 21.4133 130.233 21.8496C129.961 22.2859 129.606 22.6642 129.188 22.9629C128.226 23.6368 127.075 23.9854 125.901 23.9578L125.902 23.9569ZM125.808 14.0986C125.037 14.1117 124.302 14.4282 123.763 14.9796C123.224 15.531 122.924 16.2728 122.928 17.044H128.582C128.606 16.6653 128.552 16.2858 128.422 15.929C128.293 15.5722 128.092 15.2457 127.832 14.9697C127.572 14.6938 127.257 14.4742 126.909 14.3247C126.56 14.1752 126.184 14.0989 125.805 14.1005L125.808 14.0986ZM105.642 23.9578C104.919 23.9855 104.198 23.8601 103.527 23.5898C102.856 23.3196 102.249 22.9106 101.747 22.3896C100.73 21.1936 100.205 19.656 100.278 18.0877C100.206 16.5218 100.732 14.9871 101.75 13.7951C102.796 12.7909 104.191 12.2301 105.641 12.2301C107.092 12.2301 108.486 12.7909 109.533 13.7951C110.552 14.9868 111.078 16.5216 111.006 18.0877C111.079 19.6559 110.554 21.1934 109.537 22.3896C109.034 22.9103 108.428 23.3192 107.757 23.5894C107.086 23.8596 106.365 23.9852 105.642 23.9578ZM105.642 14.1436C103.99 14.1436 102.644 15.917 102.644 18.097C102.644 20.277 103.989 22.0495 105.642 22.0495C107.296 22.0495 108.64 20.2761 108.64 18.097C108.64 15.918 107.291 14.1436 105.641 14.1436H105.642ZM97.3251 23.8182C95.0355 23.8182 94.1399 22.962 94.1399 20.7651V14.2748H92.4967V12.433H94.1418V9.75738H96.4745V12.4339H98.6245V14.2748H96.4745V20.5094C96.4745 21.4911 96.8989 21.9286 97.8507 21.9286C98.1062 21.9301 98.3615 21.9119 98.6142 21.8743V23.7133C98.1888 23.7913 97.7566 23.8265 97.3242 23.8182H97.3251ZM35.4008 23.7442H32.8986L38.4998 8.23035H41.1014L46.7027 23.7423H44.1545L42.7352 19.5491H36.8229L35.4036 23.7423L35.4008 23.7442ZM39.7458 10.8085L37.4347 17.6136H42.1188L39.8114 10.8085H39.7458ZM115.648 23.7414H113.325V12.433H115.54V14.3581H115.594C115.737 13.7488 116.085 13.207 116.579 12.8235C117.074 12.4399 117.685 12.2379 118.311 12.2512C118.578 12.2548 118.845 12.2836 119.106 12.3374V14.4977C118.768 14.4004 118.417 14.3568 118.065 14.3684C117.727 14.3538 117.391 14.4127 117.078 14.5408C116.766 14.669 116.485 14.8635 116.255 15.1109C116.025 15.3582 115.851 15.6526 115.746 15.9736C115.641 16.2945 115.607 16.6345 115.646 16.97V23.7423L115.648 23.7414ZM12.3492 6.85196C12.2523 6.85308 12.1554 6.84932 12.0588 6.84072C11.9505 5.1674 12.5112 3.51958 13.6177 2.25963C14.7387 0.983363 16.2995 0.176519 17.9889 0C18.1256 1.72361 17.5799 3.43196 16.4694 4.75721C15.9683 5.3762 15.3424 5.88266 14.6325 6.24358C13.9226 6.60451 13.1446 6.81181 12.3492 6.85196Z" fill="white"/>
</svg>
