<svg width="143" height="26" viewBox="0 0 143 26" fill="none" xmlns="http://www.w3.org/2000/svg">
<path d="M135.183 25.4232H132.582L135.058 19.7891L130.635 9.72139H133.239L136.36 16.8267L139.483 9.72139H142.087L135.183 25.4232ZM71.4713 22.2376L73.5512 21.3673C73.7665 21.9292 74.1458 22.4134 74.6399 22.7568C75.1341 23.1002 75.7201 23.287 76.3219 23.2928C76.7133 23.3147 77.1048 23.2513 77.4694 23.1069C77.8339 22.9626 78.1627 22.7408 78.433 22.4568C78.7033 22.1728 78.9087 21.8335 79.035 21.4623C79.1612 21.0912 79.2053 20.697 79.1642 20.3071V19.2429C78.8078 19.6796 78.3535 20.0261 77.838 20.2542C77.3225 20.4823 76.7605 20.5855 76.1977 20.5555C74.8812 20.5297 73.6254 19.9969 72.692 19.0682C72.168 18.5576 71.7528 17.9461 71.4713 17.2708C71.1898 16.5954 71.048 15.8701 71.0543 15.1384C71.0631 13.7354 71.6007 12.3873 72.5597 11.3632C73.0291 10.852 73.599 10.4432 74.2337 10.1624C74.8683 9.88164 75.5542 9.73494 76.2482 9.73149C76.7949 9.71759 77.3382 9.82138 77.8413 10.0358C78.3445 10.2503 78.7956 10.5704 79.1642 10.9744V10.0586H81.436V19.781C81.5262 21.3359 80.9998 22.8636 79.9709 24.0329C79.4919 24.4985 78.9232 24.8619 78.2993 25.1009C77.6755 25.3399 77.0096 25.4496 76.3421 25.4232C75.306 25.4339 74.2902 25.1369 73.4231 24.5698C72.556 24.0027 71.8767 23.1911 71.4713 22.2376ZM73.4341 15.1697C73.3945 15.5829 73.4418 15.9998 73.5731 16.3935C73.7044 16.7873 73.9167 17.1491 74.1964 17.4558C74.4761 17.7625 74.8169 18.0072 75.1969 18.1742C75.5769 18.3411 75.9877 18.4266 76.4027 18.4251C76.8178 18.4236 77.2279 18.3352 77.6067 18.1655C77.9855 17.9959 78.3246 17.7487 78.6021 17.44C78.8795 17.1314 79.0892 16.768 79.2177 16.3733C79.3462 15.9786 79.3905 15.5614 79.3479 15.1485C79.3782 14.7416 79.3271 14.3326 79.1976 13.9456C79.0682 13.5586 78.8629 13.2012 78.5937 12.8944C78.3246 12.5876 77.9971 12.3375 77.6303 12.1587C77.2634 11.9798 76.8646 11.8759 76.4572 11.8529C76.0377 11.8631 75.6247 11.9581 75.2431 12.1323C74.8614 12.3065 74.519 12.5562 74.2365 12.8664C73.954 13.1765 73.7372 13.5407 73.5993 13.9369C73.4614 14.3332 73.4052 14.7532 73.4341 15.1718V15.1697ZM13.3741 12.8908L16.9081 16.4197L2.00387 24.5761C1.89991 24.6349 1.79155 24.6855 1.67976 24.7276L13.3741 12.8908ZM0.118763 23.3756C0.109676 22.1619 0.014764 2.91299 0.00870579 1.46911C-0.0196899 1.21443 0.0216798 0.956824 0.12839 0.72384C0.2351 0.490856 0.403137 0.29126 0.614526 0.146405L12.8632 12.382L0.66804 24.7245C0.472691 24.5621 0.320378 24.3541 0.224574 24.1188C0.12877 23.8835 0.0924278 23.6282 0.118763 23.3756ZM32.1263 17.9414C31.365 17.1721 30.7628 16.2603 30.354 15.2582C29.9452 14.2561 29.7379 13.1833 29.7439 12.101C29.7499 11.0187 29.9691 9.94826 30.389 8.95073C30.8088 7.95321 31.4211 7.0482 32.1909 6.2874C33.736 4.69721 35.8439 3.77756 38.0605 3.72657C40.2772 3.67558 42.4251 4.49732 44.0417 6.01478L42.4383 7.67877C41.3297 6.61017 39.8484 6.01548 38.3087 6.02084C36.6853 6.02004 35.1282 6.66414 33.9797 7.81144C32.8313 8.95875 32.1856 10.5153 32.1848 12.1386C32.184 13.762 32.8281 15.3191 33.9754 16.4676C35.1227 17.616 36.6793 18.2616 38.3026 18.2625C40.6461 18.2625 43.4844 17.0609 43.7701 13.6774H38.2885V11.3884H46.0117C46.1115 11.8869 46.1579 12.3946 46.15 12.903C46.1801 13.9284 45.9993 14.949 45.6188 15.9017C45.2382 16.8544 44.6661 17.7187 43.9377 18.4412C42.4191 19.8467 40.4126 20.6051 38.344 20.5555C37.1838 20.5663 36.0337 20.3402 34.964 19.8908C33.8943 19.4415 32.9276 18.7785 32.1232 17.9424L32.1263 17.9414ZM88.5786 19.1156C88.0451 18.5999 87.625 17.9785 87.3451 17.2913C87.0652 16.6041 86.9317 15.866 86.953 15.1243C86.9145 14.4343 87.0161 13.7437 87.2516 13.0941C87.4871 12.4444 87.8517 11.8491 88.3234 11.3441C88.7952 10.8391 89.3642 10.4348 89.9963 10.1556C90.6284 9.87636 91.3105 9.72798 92.0015 9.71938C93.0119 9.71899 93.9947 10.0487 94.8004 10.6584C95.5591 11.2344 96.1472 12.0057 96.5017 12.8898L96.8784 13.7733L89.6226 16.7832C89.8484 17.2917 90.2224 17.7203 90.6956 18.0128C91.1689 18.3054 91.7193 18.4483 92.2751 18.423C92.8084 18.4321 93.3344 18.2991 93.7993 18.0377C94.2642 17.7764 94.6512 17.396 94.9205 16.9357L96.7905 18.1786C96.2871 18.9153 95.6105 19.5171 94.8203 19.9314C94.03 20.3456 93.1502 20.5595 92.258 20.5545C90.8916 20.5649 89.5734 20.0502 88.5756 19.1167L88.5786 19.1156ZM89.973 12.8424C89.7075 13.1275 89.5058 13.4658 89.3811 13.8348C89.2565 14.2039 89.2118 14.5953 89.2501 14.9829L94.0966 12.9585C93.9077 12.5948 93.6188 12.2927 93.2638 12.0879C92.9089 11.8831 92.5028 11.784 92.0934 11.8024C91.6869 11.8181 91.2883 11.9187 90.9231 12.0979C90.5579 12.277 90.2342 12.5306 89.973 12.8424ZM60.6049 18.9218C59.622 17.8914 59.0788 16.5189 59.0903 15.095C59.0881 14.3835 59.2277 13.6788 59.5011 13.0219C59.7745 12.365 60.1761 11.7693 60.6825 11.2695C61.1889 10.7697 61.7898 10.3759 62.4502 10.1111C63.1106 9.84633 63.8172 9.7159 64.5286 9.72745C65.8836 9.72633 67.1939 10.2127 68.22 11.0976C68.79 11.6054 69.2415 12.2323 69.5423 12.9339C69.8431 13.6355 69.9859 14.3947 69.9607 15.1576C69.9719 15.8688 69.8401 16.575 69.573 17.2342C69.3059 17.8934 68.9091 18.4923 68.406 18.9951C67.903 19.498 67.304 19.8946 66.6447 20.1614C65.9854 20.4283 65.2791 20.5599 64.5679 20.5484C63.8317 20.5596 63.1008 20.4212 62.4196 20.1416C61.7383 19.862 61.121 19.447 60.6049 18.9218ZM64.5609 11.8539C64.1494 11.8498 63.7415 11.9307 63.3627 12.0916C62.9839 12.2525 62.6425 12.4899 62.3597 12.7889C61.7759 13.4249 61.4589 14.2611 61.4742 15.1243C61.4436 15.5448 61.4999 15.9672 61.6395 16.365C61.7792 16.7628 61.9992 17.1277 62.286 17.4368C62.5727 17.7459 62.92 17.9927 63.3063 18.1619C63.6925 18.331 64.1094 18.4188 64.531 18.4198C64.9527 18.4209 65.37 18.3351 65.7571 18.1679C66.1442 18.0007 66.4927 17.7556 66.7809 17.4479C67.0692 17.1402 67.291 16.7765 67.4327 16.3793C67.5743 15.9822 67.6326 15.5601 67.6041 15.1394C67.6302 14.7225 67.5717 14.3046 67.432 13.911C67.2923 13.5173 67.0744 13.1559 66.7914 12.8487C66.5084 12.5414 66.1662 12.2946 65.7852 12.1231C65.4043 11.9516 64.9927 11.859 64.575 11.8509L64.5609 11.8539ZM48.646 18.9218C47.6632 17.8914 47.12 16.5189 47.1314 15.095C47.1292 14.3834 47.2689 13.6784 47.5424 13.0214C47.8159 12.3644 48.2177 11.7686 48.7243 11.2687C49.2309 10.7689 49.8321 10.3752 50.4927 10.1105C51.1534 9.84586 51.8601 9.71563 52.5717 9.72745C53.9273 9.72666 55.2381 10.2129 56.2652 11.0976C56.8342 11.606 57.2847 12.2331 57.585 12.9346C57.8852 13.6361 58.0279 14.395 58.0029 15.1576C58.0115 15.8757 57.8754 16.5881 57.6029 17.2525C57.3304 17.9169 56.927 18.5196 56.4166 19.0248C55.3615 20.0213 53.96 20.568 52.5088 20.5491C51.0577 20.5303 49.6708 19.9474 48.6419 18.9238L48.646 18.9218ZM52.602 11.8539H52.5969C52.1858 11.8504 51.7784 11.9316 51.4 12.0924C51.0217 12.2533 50.6805 12.4904 50.3978 12.7889C49.8147 13.4254 49.4978 14.2612 49.5123 15.1243C49.4817 15.5448 49.538 15.9672 49.6776 16.365C49.8173 16.7628 50.0373 17.1277 50.3241 17.4368C50.6108 17.7459 50.9581 17.9927 51.3443 18.1619C51.7306 18.331 52.1475 18.4188 52.5691 18.4198C52.9908 18.4209 53.4081 18.3351 53.7952 18.1679C54.1822 18.0007 54.5307 17.7556 54.819 17.4479C55.1073 17.1402 55.3291 16.7765 55.4707 16.3793C55.6124 15.9822 55.6707 15.5601 55.6422 15.1394C55.6682 14.722 55.6093 14.3036 55.4692 13.9095C55.329 13.5154 55.1105 13.1538 54.8267 12.8465C54.543 12.5391 54.1999 12.2925 53.8183 12.1214C53.4366 11.9502 53.0242 11.8582 52.606 11.8509L52.602 11.8539ZM120.796 19.3772C120.456 18.9483 120.208 18.4539 120.068 17.9249C119.928 17.3958 119.898 16.8436 119.981 16.3026C120.116 15.4193 120.554 14.6105 121.221 14.0159C121.888 13.4212 122.741 13.078 123.634 13.0453C123.845 13.0241 124.067 13.013 124.291 13.013C125.304 13.0367 126.31 13.1901 127.284 13.4694C127.187 12.8003 126.84 12.193 126.313 11.7698C125.785 11.3465 125.117 11.1388 124.443 11.1885C123.886 11.1763 123.335 11.3135 122.849 11.5859C122.362 11.8582 121.958 12.2558 121.677 12.7374L119.758 11.452C120.282 10.6805 120.989 10.0505 121.816 9.61838C122.642 9.18623 123.563 8.96529 124.496 8.97523C125.228 8.96248 125.956 9.09915 126.634 9.3769C127.313 9.65465 127.927 10.0677 128.441 10.5907C128.915 11.1156 129.274 11.734 129.495 12.4061C129.716 13.0782 129.794 13.7892 129.724 14.4932V20.2334H127.341V18.945C126.814 19.6145 126.089 20.1012 125.27 20.3364C124.779 20.4694 124.272 20.5373 123.764 20.5383C123.216 20.5603 122.669 20.4686 122.159 20.2691C121.648 20.0696 121.184 19.7666 120.796 19.3792V19.3772ZM122.461 16.7136C122.456 16.9295 122.495 17.1442 122.576 17.3446C122.656 17.5449 122.777 17.7267 122.93 17.879C123.084 18.0312 123.266 18.1506 123.467 18.2299C123.668 18.3092 123.883 18.3467 124.099 18.3402C124.304 18.3388 124.507 18.3102 124.705 18.2554C125.344 18.1009 125.928 17.7732 126.394 17.3083C126.859 16.8434 127.187 16.2593 127.342 15.6201C126.699 15.3958 126.034 15.2365 125.359 15.1445C125.116 15.107 124.87 15.0874 124.624 15.0859C123.053 15.089 122.477 15.9654 122.462 16.7156L122.461 16.7136ZM117.586 20.2314H115.203V4.2781H117.587V20.2314H117.586ZM104.944 20.2314H102.564V4.2781H104.947H108.333C109.681 4.2781 110.973 4.8134 111.926 5.76624C112.879 6.71907 113.414 8.0114 113.414 9.35891C113.414 10.7064 112.879 11.9988 111.926 12.9516C110.973 13.9044 109.681 14.4397 108.333 14.4397H104.947V20.2263L104.944 20.2314ZM104.95 12.0609H108.332C109.039 12.0472 109.712 11.757 110.206 11.2526C110.701 10.7483 110.978 10.0699 110.978 9.36346C110.978 8.65696 110.701 7.97866 110.206 7.47428C109.712 6.9699 109.039 6.67971 108.332 6.66604H104.95V12.0609ZM85.6313 20.2334H83.2474V4.28012H85.6313V20.2334ZM13.881 12.3789L17.5634 8.65212L22.6341 11.4177C23.8841 12.0992 23.2399 12.9514 22.6341 13.2856L17.5674 16.0593L13.881 12.3789ZM1.48388 0C1.66574 0.0217073 1.84203 0.0768191 2.00387 0.162562L16.905 8.29267L13.3711 11.869L1.48388 0Z" fill="white"/>
</svg>
