<svg width="88" height="88" viewBox="0 0 88 88" fill="none" xmlns="http://www.w3.org/2000/svg">
<circle cx="44" cy="44" r="44" fill="#FFEFF2"/>
<path d="M31.1997 46.6112L36.4264 54.0288C36.6246 54.325 36.8907 54.5695 37.2026 54.742C37.5144 54.9146 37.8629 55.0101 38.2192 55.0208C38.5754 55.0314 38.929 54.9568 39.2506 54.8032C39.5722 54.6496 39.8524 54.4214 40.068 54.1376L56.7997 32.9686" stroke="#084ef2" stroke-linecap="round" stroke-linejoin="round"/>
<path d="M44 68C57.2548 68 68 57.2548 68 44C68 30.7452 57.2548 20 44 20C30.7452 20 20 30.7452 20 44C20 57.2548 30.7452 68 44 68Z" stroke="#084ef2" stroke-linecap="round" stroke-linejoin="round"/>
</svg>
