<svg width="256" height="256" viewBox="0 0 256 256" fill="none" xmlns="http://www.w3.org/2000/svg">
<path opacity="0.5" d="M63.2521 98.0408C62.9903 98.0408 62.7391 98.1448 62.554 98.3299L7.38904 153.495C7.00348 153.88 7.00348 154.506 7.38904 154.891L104.353 251.855C104.738 252.241 105.364 252.241 105.749 251.855L146.561 211.046C146.946 210.661 146.946 210.035 146.561 209.65L91.8019 154.891C91.4163 154.506 91.4164 153.88 91.8019 153.495L145.573 99.7262C146.195 99.1043 145.755 98.0408 144.875 98.0408H63.2521Z" fill="#084ef2"/>
<path d="M110.427 152.827C109.805 153.449 110.245 154.512 111.125 154.512H192.745C193.007 154.512 193.258 154.408 193.443 154.223L248.611 99.0582C248.997 98.6726 248.997 98.0475 248.611 97.6619L151.647 0.698132C151.262 0.312567 150.637 0.312562 150.251 0.698127L109.44 41.5097C109.054 41.8953 109.054 42.5204 109.44 42.9059L164.196 97.6619C164.581 98.0475 164.581 98.6726 164.196 99.0582L110.427 152.827Z" fill="#084ef2"/>
</svg>
