<svg width="32" height="32" viewBox="0 0 32 32" fill="none" xmlns="http://www.w3.org/2000/svg">
<path opacity="0.5" d="M8.15318 12.4224C7.89133 12.4224 7.64021 12.5264 7.45505 12.7115L1.32752 18.8391C0.941957 19.2246 0.941957 19.8498 1.32752 20.2353L12.3941 31.3019C12.7797 31.6875 13.4048 31.6875 13.7903 31.3019L17.742 27.3505C18.1276 26.9649 18.1276 26.3398 17.7421 25.9542L12.0232 20.2353C11.6376 19.8498 11.6376 19.2246 12.0232 18.8391L16.7547 14.1078C17.3767 13.4859 16.9362 12.4224 16.0566 12.4224H8.15318Z" fill="#084ef2"/>
<path d="M15.2452 17.8922C14.6233 18.5142 15.0638 19.5777 15.9434 19.5777H23.8465C24.1083 19.5777 24.3595 19.4736 24.5446 19.2885L30.6725 13.161C31.058 12.7754 31.0581 12.1503 30.6725 11.7647L19.6059 0.698128C19.2204 0.312563 18.5952 0.312562 18.2097 0.698127L14.2579 4.64986C13.8724 5.03543 13.8724 5.66055 14.2579 6.04612L19.9765 11.7647C20.3621 12.1503 20.3621 12.7754 19.9765 13.161L15.2452 17.8922Z" fill="#084ef2"/>
</svg>
