<svg width="900" height="619" viewBox="0 0 900 619" fill="none" xmlns="http://www.w3.org/2000/svg">
<g filter="url(#filter0_d)">
<path d="M846.456 29.5053H53.5441C43.5786 29.5053 35.5 37.5839 35.5 47.5494V559.461C35.5 569.427 43.5786 577.505 53.5441 577.505H846.456C856.421 577.505 864.5 569.427 864.5 559.461V47.5494C864.5 37.5839 856.421 29.5053 846.456 29.5053Z" fill="white" fill-opacity="0.01"/>
</g>
<path d="M846.456 29.5053H53.5441C43.5786 29.5053 35.5 37.5839 35.5 47.5494V559.461C35.5 569.427 43.5786 577.505 53.5441 577.505H846.456C856.421 577.505 864.5 569.427 864.5 559.461V47.5494C864.5 37.5839 856.421 29.5053 846.456 29.5053Z" fill="white"/>
<path opacity="0.02" d="M839.084 36.5014H60.7775C50.812 36.5014 42.7334 44.58 42.7334 54.5455V550.364C42.7334 560.33 50.812 568.408 60.7775 568.408H839.084C849.05 568.408 857.128 560.33 857.128 550.364V54.5455C857.128 44.58 849.05 36.5014 839.084 36.5014Z" fill="#6E7284"/>
<g filter="url(#filter1_d)">
<path d="M624.357 183.097H251.31C247.323 183.097 244.092 186.328 244.092 190.315V367.005C244.092 370.992 247.323 374.223 251.31 374.223H624.357C628.344 374.223 631.575 370.992 631.575 367.005V190.315C631.575 186.328 628.344 183.097 624.357 183.097Z" fill="white" fill-opacity="0.01"/>
</g>
<path d="M624.357 183.097H251.31C247.323 183.097 244.092 186.328 244.092 190.315V367.005C244.092 370.992 247.323 374.223 251.31 374.223H624.357C628.344 374.223 631.575 370.992 631.575 367.005V190.315C631.575 186.328 628.344 183.097 624.357 183.097Z" fill="white"/>
<g filter="url(#filter2_d)">
<path d="M244.092 405.802C244.092 401.816 247.323 398.584 251.309 398.584H624.357C628.343 398.584 631.575 401.816 631.575 405.802V569.009H244.092V405.802Z" fill="white" fill-opacity="0.01"/>
</g>
<path d="M244.092 405.802C244.092 401.816 247.323 398.584 251.309 398.584H624.357C628.343 398.584 631.575 401.816 631.575 405.802V569.009H244.092V405.802Z" fill="white"/>
<g filter="url(#filter3_d)">
<path d="M63.3789 124.511C63.3789 120.525 66.6104 117.294 70.5966 117.294H214.554C218.54 117.294 221.772 120.525 221.772 124.511V568.408H63.3789V124.511Z" fill="white" fill-opacity="0.01"/>
</g>
<path d="M63.3789 124.511C63.3789 120.525 66.6104 117.294 70.5966 117.294H214.554C218.54 117.294 221.772 120.525 221.772 124.511V568.408H63.3789V124.511Z" fill="white"/>
<g filter="url(#filter4_d)">
<path d="M830.911 59.2626H251.31C247.323 59.2626 244.092 62.4941 244.092 66.4803V155.001C244.092 158.987 247.323 162.219 251.31 162.219H830.911C834.898 162.219 838.129 158.987 838.129 155.001V66.4803C838.129 62.4941 834.898 59.2626 830.911 59.2626Z" fill="white" fill-opacity="0.01"/>
</g>
<path d="M830.911 59.2626H251.31C247.323 59.2626 244.092 62.4941 244.092 66.4803V155.001C244.092 158.987 247.323 162.219 251.31 162.219H830.911C834.898 162.219 838.129 158.987 838.129 155.001V66.4803C838.129 62.4941 834.898 59.2626 830.911 59.2626Z" fill="white"/>
<path d="M350.587 92.4071H283.939C282.792 92.4071 281.863 93.3364 281.863 94.4827C281.863 95.6289 282.792 96.5582 283.939 96.5582H350.587C351.733 96.5582 352.662 95.6289 352.662 94.4827C352.662 93.3364 351.733 92.4071 350.587 92.4071Z" fill="#6E7284"/>
<path d="M186.702 80.9076H144.335C143.188 80.9076 142.259 81.8369 142.259 82.9831C142.259 84.1294 143.188 85.0587 144.335 85.0587H186.702C187.848 85.0587 188.778 84.1294 188.778 82.9831C188.778 81.8369 187.848 80.9076 186.702 80.9076Z" fill="#6E7284"/>
<path d="M312.97 222.369H265.59C264.443 222.369 263.514 223.298 263.514 224.445C263.514 225.591 264.443 226.52 265.59 226.52H312.97C314.116 226.52 315.045 225.591 315.045 224.445C315.045 223.298 314.116 222.369 312.97 222.369Z" fill="#6E7284"/>
<path d="M291.6 204.173H265.622C264.458 204.173 263.514 205.117 263.514 206.281C263.514 207.445 264.458 208.389 265.622 208.389H291.6C292.764 208.389 293.708 207.445 293.708 206.281C293.708 205.117 292.764 204.173 291.6 204.173Z" fill="#E3E4E9"/>
<path d="M102.056 540.627H96.0704C94.8873 540.627 93.9282 541.586 93.9282 542.769C93.9282 543.952 94.8873 544.911 96.0704 544.911H102.056C103.239 544.911 104.198 543.952 104.198 542.769C104.198 541.586 103.239 540.627 102.056 540.627Z" fill="#084ef2"/>
<path d="M345.925 222.369H330.051C328.904 222.369 327.975 223.298 327.975 224.445C327.975 225.591 328.904 226.52 330.051 226.52H345.925C347.071 226.52 348 225.591 348 224.445C348 223.298 347.071 222.369 345.925 222.369Z" fill="#129D59"/>
<path d="M335.619 111.244H298.905C297.758 111.244 296.829 112.173 296.829 113.32C296.829 114.466 297.758 115.395 298.905 115.395H335.619C336.766 115.395 337.695 114.466 337.695 113.32C337.695 112.173 336.766 111.244 335.619 111.244Z" fill="#E3E4E9"/>
<path d="M325.177 130.08H309.348C308.201 130.08 307.272 131.009 307.272 132.156C307.272 133.302 308.201 134.231 309.348 134.231H325.177C326.323 134.231 327.252 133.302 327.252 132.156C327.252 131.009 326.323 130.08 325.177 130.08Z" fill="#129D59"/>
<path d="M502.043 92.4071H435.395C434.248 92.4071 433.319 93.3364 433.319 94.4827C433.319 95.6289 434.248 96.5582 435.395 96.5582H502.043C503.189 96.5582 504.118 95.6289 504.118 94.4827C504.118 93.3364 503.189 92.4071 502.043 92.4071Z" fill="#6E7284"/>
<path d="M487.076 111.244H450.362C449.215 111.244 448.286 112.173 448.286 113.32C448.286 114.466 449.215 115.395 450.362 115.395H487.076C488.223 115.395 489.152 114.466 489.152 113.32C489.152 112.173 488.223 111.244 487.076 111.244Z" fill="#E3E4E9"/>
<path d="M476.634 130.08H460.805C459.658 130.08 458.729 131.009 458.729 132.156C458.729 133.302 459.658 134.231 460.805 134.231H476.634C477.78 134.231 478.709 133.302 478.709 132.156C478.709 131.009 477.78 130.08 476.634 130.08Z" fill="#084ef2"/>
<path d="M654.909 92.4071H588.261C587.114 92.4071 586.185 93.3364 586.185 94.4827C586.185 95.6289 587.114 96.5582 588.261 96.5582H654.909C656.055 96.5582 656.984 95.6289 656.984 94.4827C656.984 93.3364 656.055 92.4071 654.909 92.4071Z" fill="#6E7284"/>
<path d="M639.942 111.244H603.228C602.081 111.244 601.152 112.173 601.152 113.32C601.152 114.466 602.081 115.395 603.228 115.395H639.942C641.089 115.395 642.018 114.466 642.018 113.32C642.018 112.173 641.089 111.244 639.942 111.244Z" fill="#E3E4E9"/>
<path d="M629.5 130.08H613.671C612.524 130.08 611.595 131.009 611.595 132.156C611.595 133.302 612.524 134.231 613.671 134.231H629.5C630.646 134.231 631.575 133.302 631.575 132.156C631.575 131.009 630.646 130.08 629.5 130.08Z" fill="#084ef2"/>
<g filter="url(#filter5_d)">
<path d="M834.808 184.341H660.304C656.317 184.341 653.086 187.572 653.086 191.559V352.894C653.086 356.881 656.317 360.112 660.304 360.112H834.808C838.795 360.112 842.026 356.881 842.026 352.894V191.559C842.026 187.572 838.795 184.341 834.808 184.341Z" fill="white" fill-opacity="0.01"/>
</g>
<path d="M834.808 184.341H660.304C656.317 184.341 653.086 187.572 653.086 191.559V352.894C653.086 356.881 656.317 360.112 660.304 360.112H834.808C838.795 360.112 842.026 356.881 842.026 352.894V191.559C842.026 187.572 838.795 184.341 834.808 184.341Z" fill="white"/>
<g filter="url(#filter6_d)">
<path d="M653.086 388.931C653.086 384.945 656.318 381.713 660.304 381.713H834.808C838.795 381.713 842.026 384.945 842.026 388.931V569.097H653.086V388.931Z" fill="#084ef2" fill-opacity="0.01"/>
</g>
<path d="M653.086 388.931C653.086 384.945 656.318 381.713 660.304 381.713H834.808C838.795 381.713 842.026 384.945 842.026 388.931V569.097H653.086V388.931Z" fill="#084ef2"/>
<path d="M765.964 312.69H729.148C728.124 312.69 727.294 313.52 727.294 314.544C727.294 315.568 728.124 316.398 729.148 316.398H765.964C766.987 316.398 767.818 315.568 767.818 314.544C767.818 313.52 766.987 312.69 765.964 312.69Z" fill="#6E7284"/>
<path d="M758.064 323.555H737.049C736.393 323.555 735.861 324.087 735.861 324.743C735.861 325.399 736.393 325.931 737.049 325.931H758.064C758.72 325.931 759.252 325.399 759.252 324.743C759.252 324.087 758.72 323.555 758.064 323.555Z" fill="#E3E4E9"/>
<path d="M701.658 208.825H675.715C674.616 208.825 673.724 209.717 673.724 210.816V210.816C673.724 211.916 674.616 212.808 675.715 212.808H701.658C702.758 212.808 703.65 211.916 703.65 210.816V210.816C703.65 209.717 702.758 208.825 701.658 208.825Z" fill="#E3E4E9"/>
<path fill-rule="evenodd" clip-rule="evenodd" d="M683.784 313.567C681.683 313.567 679.91 311.931 679.895 309.83C679.894 309.673 679.894 309.515 679.894 309.357C679.894 271.988 710.187 241.694 747.556 241.694C784.925 241.694 815.219 271.988 815.219 309.357C815.219 309.515 815.219 309.673 815.218 309.83C815.203 311.931 813.429 313.567 811.328 313.567C809.051 313.567 807.236 311.635 807.236 309.357C807.236 276.397 780.516 249.678 747.556 249.678C714.596 249.678 687.877 276.397 687.877 309.357C687.877 311.635 686.062 313.567 683.784 313.567Z" fill="#E3E4E9"/>
<path fill-rule="evenodd" clip-rule="evenodd" d="M679.895 309.836C679.91 311.934 681.677 313.567 683.775 313.567C686.052 313.567 687.863 311.635 687.863 309.357C687.863 276.397 714.538 249.678 747.443 249.678C762.74 249.678 776.69 255.452 787.24 264.944C788.893 266.431 791.44 266.461 793.013 264.888C794.555 263.346 794.579 260.842 792.97 259.37C780.961 248.391 764.983 241.694 747.443 241.694C710.137 241.694 679.894 271.988 679.894 309.357C679.894 309.517 679.894 309.677 679.895 309.836Z" fill="#084ef2"/>
<path d="M679.895 309.836L678.692 309.845L679.895 309.836ZM792.97 259.37L793.781 258.482L792.97 259.37ZM787.24 264.944L788.045 264.049L787.24 264.944ZM683.775 312.364C682.287 312.364 681.108 311.214 681.098 309.828L678.692 309.845C678.712 312.653 681.067 314.769 683.775 314.769V312.364ZM686.661 309.357C686.661 311.016 685.343 312.364 683.775 312.364V314.769C686.762 314.769 689.066 312.254 689.066 309.357H686.661ZM747.443 248.475C713.872 248.475 686.661 275.735 686.661 309.357H689.066C689.066 277.06 715.204 250.881 747.443 250.881V248.475ZM788.045 264.049C777.283 254.367 763.049 248.475 747.443 248.475V250.881C762.431 250.881 776.098 256.537 786.436 265.838L788.045 264.049ZM747.443 242.897C764.671 242.897 780.362 249.473 792.158 260.258L793.781 258.482C781.56 247.308 765.295 240.492 747.443 240.492V242.897ZM681.096 309.357C681.096 272.651 710.803 242.897 747.443 242.897V240.492C709.47 240.492 678.691 271.326 678.691 309.357H681.096ZM681.098 309.828C681.097 309.671 681.096 309.514 681.096 309.357H678.691C678.691 309.52 678.691 309.682 678.692 309.845L681.098 309.828ZM793.863 265.739C795.857 263.745 795.93 260.447 793.781 258.482L792.158 260.258C793.227 261.236 793.252 262.947 792.162 264.038L793.863 265.739ZM786.436 265.838C788.526 267.718 791.803 267.8 793.863 265.739L792.162 264.038C791.078 265.122 789.261 265.144 788.045 264.049L786.436 265.838Z" fill="#084ef2"/>
<path d="M602.618 203.249H588C586.007 203.249 584.391 204.865 584.391 206.858V221.476C584.391 223.469 586.007 225.085 588 225.085H602.618C604.611 225.085 606.227 223.469 606.227 221.476V206.858C606.227 204.865 604.611 203.249 602.618 203.249Z" fill="#084ef2"/>
<path d="M111.358 524.345H96.7397C94.7466 524.345 93.1309 525.961 93.1309 527.954V542.572C93.1309 544.565 94.7466 546.181 96.7397 546.181H111.358C113.351 546.181 114.967 544.565 114.967 542.572V527.954C114.967 525.961 113.351 524.345 111.358 524.345Z" fill="#084ef2"/>
<path d="M146.232 147.814H96.0061C94.8585 147.814 93.9282 148.744 93.9282 149.892C93.9282 151.039 94.8585 151.97 96.0061 151.97H146.232C147.38 151.97 148.31 151.039 148.31 149.892C148.31 148.744 147.38 147.814 146.232 147.814Z" fill="#E3E4E9"/>
<path d="M604.151 426.973H569.314C568.167 426.973 567.238 427.902 567.238 429.049C567.238 430.195 568.167 431.124 569.314 431.124H604.151C605.297 431.124 606.227 430.195 606.227 429.049C606.227 427.902 605.297 426.973 604.151 426.973Z" fill="#6E7284"/>
<path d="M604.152 483.904H579.47C578.323 483.904 577.394 484.833 577.394 485.98C577.394 487.126 578.323 488.055 579.47 488.055H604.152C605.298 488.055 606.227 487.126 606.227 485.98C606.227 484.833 605.298 483.904 604.152 483.904Z" fill="#6E7284"/>
<path d="M604.151 540.596H562.844C561.697 540.596 560.768 541.525 560.768 542.672C560.768 543.818 561.697 544.747 562.844 544.747H604.151C605.298 544.747 606.227 543.818 606.227 542.672C606.227 541.525 605.298 540.596 604.151 540.596Z" fill="#6E7284"/>
<path d="M412.789 421.475H297.13C295.983 421.475 295.054 422.404 295.054 423.551C295.054 424.697 295.983 425.626 297.13 425.626H412.789C413.936 425.626 414.865 424.697 414.865 423.551C414.865 422.404 413.936 421.475 412.789 421.475Z" fill="#6E7284"/>
<path d="M396.329 432.466H297.132C295.984 432.466 295.054 433.396 295.054 434.544C295.054 435.691 295.984 436.622 297.132 436.622H396.329C397.477 436.622 398.407 435.691 398.407 434.544C398.407 433.396 397.477 432.466 396.329 432.466Z" fill="#E3E4E9"/>
<path d="M278.415 421.54H268.592C267.444 421.54 266.514 422.47 266.514 423.618C266.514 424.765 267.444 425.696 268.592 425.696H278.415C279.563 425.696 280.493 424.765 280.493 423.618C280.493 422.47 279.563 421.54 278.415 421.54Z" fill="#129D59"/>
<path d="M278.415 478.402H268.592C267.444 478.402 266.514 479.332 266.514 480.48C266.514 481.627 267.444 482.558 268.592 482.558H278.415C279.563 482.558 280.493 481.627 280.493 480.48C280.493 479.332 279.563 478.402 278.415 478.402Z" fill="#084ef2"/>
<path d="M278.415 535.263H268.592C267.444 535.263 266.514 536.193 266.514 537.341C266.514 538.488 267.444 539.419 268.592 539.419H278.415C279.563 539.419 280.493 538.488 280.493 537.341C280.493 536.193 279.563 535.263 278.415 535.263Z" fill="#084ef2"/>
<path d="M390.936 478.406H297.13C295.983 478.406 295.054 479.335 295.054 480.482C295.054 481.628 295.983 482.557 297.13 482.557H390.936C392.082 482.557 393.011 481.628 393.011 480.482C393.011 479.335 392.082 478.406 390.936 478.406Z" fill="#6E7284"/>
<path d="M381.371 489.397H297.132C295.984 489.397 295.054 490.327 295.054 491.475C295.054 492.622 295.984 493.553 297.132 493.553H381.371C382.518 493.553 383.448 492.622 383.448 491.475C383.448 490.327 382.518 489.397 381.371 489.397Z" fill="#E3E4E9"/>
<path d="M390.936 535.098H297.13C295.983 535.098 295.054 536.027 295.054 537.174C295.054 538.32 295.983 539.249 297.13 539.249H390.936C392.082 539.249 393.011 538.32 393.011 537.174C393.011 536.027 392.082 535.098 390.936 535.098Z" fill="#6E7284"/>
<path d="M381.371 546.089H297.132C295.984 546.089 295.054 547.019 295.054 548.167C295.054 549.314 295.984 550.245 297.132 550.245H381.371C382.518 550.245 383.448 549.314 383.448 548.167C383.448 547.019 382.518 546.089 381.371 546.089Z" fill="#E3E4E9"/>
<path d="M157.427 174.747H96.0061C94.8585 174.747 93.9282 175.677 93.9282 176.825C93.9282 177.972 94.8585 178.903 96.0061 178.903H157.427C158.575 178.903 159.505 177.972 159.505 176.825C159.505 175.677 158.575 174.747 157.427 174.747Z" fill="#E3E4E9"/>
<path d="M153.576 259.767H96.0061C94.8585 259.767 93.9282 260.697 93.9282 261.845C93.9282 262.992 94.8585 263.923 96.0061 263.923H153.576C154.724 263.923 155.654 262.992 155.654 261.845C155.654 260.697 154.724 259.767 153.576 259.767Z" fill="#E3E4E9"/>
<path d="M139.566 286.699H96.0061C94.8585 286.699 93.9282 287.629 93.9282 288.777C93.9282 289.924 94.8585 290.855 96.0061 290.855H139.566C140.713 290.855 141.644 289.924 141.644 288.777C141.644 287.629 140.713 286.699 139.566 286.699Z" fill="#E3E4E9"/>
<path d="M157.179 313.631H96.0061C94.8585 313.631 93.9282 314.561 93.9282 315.709C93.9282 316.856 94.8585 317.787 96.0061 317.787H157.179C158.326 317.787 159.256 316.856 159.256 315.709C159.256 314.561 158.326 313.631 157.179 313.631Z" fill="#E3E4E9"/>
<path d="M133.927 367.496H96.0061C94.8585 367.496 93.9282 368.426 93.9282 369.574C93.9282 370.721 94.8585 371.652 96.0061 371.652H133.927C135.074 371.652 136.005 370.721 136.005 369.574C136.005 368.426 135.074 367.496 133.927 367.496Z" fill="#E3E4E9"/>
<path d="M150.661 340.564H96.0061C94.8585 340.564 93.9282 341.494 93.9282 342.642C93.9282 343.789 94.8585 344.72 96.0061 344.72H150.661C151.808 344.72 152.739 343.789 152.739 342.642C152.739 341.494 151.808 340.564 150.661 340.564Z" fill="#E3E4E9"/>
<path d="M142.218 394.429H96.0061C94.8585 394.429 93.9282 395.359 93.9282 396.507C93.9282 397.654 94.8585 398.585 96.0061 398.585H142.218C143.366 398.585 144.296 397.654 144.296 396.507C144.296 395.359 143.366 394.429 142.218 394.429Z" fill="#E3E4E9"/>
<path d="M177.731 533.185H123.436C122.288 533.185 121.358 534.115 121.358 535.263C121.358 536.41 122.288 537.341 123.436 537.341H177.731C178.879 537.341 179.809 536.41 179.809 535.263C179.809 534.115 178.879 533.185 177.731 533.185Z" fill="#E3E4E9"/>
<path d="M194.711 207.198H90.4408C88.4477 207.198 86.832 208.814 86.832 210.807V230.143C86.832 232.136 88.4477 233.751 90.4408 233.751H194.711C196.704 233.751 198.32 232.136 198.32 230.143V210.807C198.32 208.814 196.704 207.198 194.711 207.198Z" fill="#084ef2"/>
<path d="M610.029 263.12H263.651" stroke="#F3F3F6" stroke-width="0.842059" stroke-linecap="round"/>
<path d="M610.029 293.43H263.651" stroke="#F3F3F6" stroke-width="0.842059" stroke-linecap="round"/>
<path d="M610.029 323.583H263.651" stroke="#F3F3F6" stroke-width="0.842059" stroke-linecap="round"/>
<path d="M610.029 353.892H263.651" stroke="#F3F3F6" stroke-width="0.842059" stroke-linecap="round"/>
<path d="M264.454 322.299C265.95 320.073 270.024 318.415 274.349 329.595C279.756 343.569 295.773 359.187 305.261 311.305C308.151 298.426 316.768 283.13 328.113 324.971C329.201 328.088 333.152 334.28 340.253 334.116C349.128 333.91 355.314 338.523 362.712 345.261C370.11 352 377.738 335.925 384.813 314.883C386.58 309.805 392.483 301.437 401.952 308.59C411.421 315.743 422.966 294.724 427.554 283.321C431.202 274.779 441.015 262.666 451.084 282.555C463.669 307.415 469.212 325.223 475.68 336.553C482.147 347.882 492.863 343.342 505.362 307.992C517.861 272.642 522.361 270.024 540.06 295.504C543.908 302.049 553.488 315.164 561.017 315.266C570.43 315.394 577.425 321.671 582.386 328.589C587.346 335.507 605.407 325.387 608.46 315.65" stroke="#CBCDD9" stroke-width="2.52618" stroke-linecap="round"/>
<path d="M700.004 399.577H672.014C670.867 399.577 669.938 400.506 669.938 401.653C669.938 402.799 670.867 403.728 672.014 403.728H700.004C701.151 403.728 702.08 402.799 702.08 401.653C702.08 400.506 701.151 399.577 700.004 399.577Z" fill="white"/>
<path d="M800.093 532.17H695.021C689.198 532.17 684.478 536.89 684.478 542.713V543.417C684.478 549.239 689.198 553.959 695.021 553.959H800.093C805.916 553.959 810.636 549.239 810.636 543.417V542.713C810.636 536.89 805.916 532.17 800.093 532.17Z" fill="white"/>
<path d="M697.792 467.255H683.507C682.573 467.255 681.815 468.013 681.815 468.947C681.815 469.882 682.573 470.64 683.507 470.64H697.792C698.727 470.64 699.485 469.882 699.485 468.947C699.485 468.013 698.727 467.255 697.792 467.255Z" fill="white"/>
<path d="M736.414 467.255H722.129C721.195 467.255 720.437 468.013 720.437 468.947C720.437 469.882 721.195 470.64 722.129 470.64H736.414C737.349 470.64 738.107 469.882 738.107 468.947C738.107 468.013 737.349 467.255 736.414 467.255Z" fill="white"/>
<path d="M775.036 467.255H760.751C759.817 467.255 759.059 468.013 759.059 468.947C759.059 469.882 759.817 470.64 760.751 470.64H775.036C775.971 470.64 776.729 469.882 776.729 468.947C776.729 468.013 775.971 467.255 775.036 467.255Z" fill="white"/>
<path d="M813.205 467.255H798.92C797.986 467.255 797.228 468.013 797.228 468.947C797.228 469.882 797.986 470.64 798.92 470.64H813.205C814.14 470.64 814.898 469.882 814.898 468.947C814.898 468.013 814.14 467.255 813.205 467.255Z" fill="white"/>
<path d="M697.792 497.126H683.507C682.573 497.126 681.815 497.884 681.815 498.818C681.815 499.753 682.573 500.511 683.507 500.511H697.792C698.727 500.511 699.485 499.753 699.485 498.818C699.485 497.884 698.727 497.126 697.792 497.126Z" fill="white"/>
<path d="M798.453 497.126H791.542C790.608 497.126 789.85 497.884 789.85 498.818C789.85 499.753 790.608 500.511 791.542 500.511H798.453C799.388 500.511 800.146 499.753 800.146 498.818C800.146 497.884 799.388 497.126 798.453 497.126Z" fill="white"/>
<path d="M813.205 497.126H806.294C805.36 497.126 804.602 497.884 804.602 498.818C804.602 499.753 805.36 500.511 806.294 500.511H813.205C814.14 500.511 814.898 499.753 814.898 498.818C814.898 497.884 814.14 497.126 813.205 497.126Z" fill="white"/>
<path d="M819.348 420.662H675.766C672.046 420.662 669.03 423.678 669.03 427.398V509.815C669.03 513.536 672.046 516.552 675.766 516.552H819.348C823.068 516.552 826.084 513.536 826.084 509.815V427.398C826.084 423.678 823.068 420.662 819.348 420.662Z" stroke="white" stroke-width="0.962353" stroke-dasharray="6.01 6.01"/>
<path d="M803.862 443.04C803.718 443.04 803.581 443.097 803.479 443.199L800.49 446.188C800.279 446.399 800.279 446.741 800.49 446.952L805.909 452.371C806.12 452.582 806.462 452.582 806.673 452.371L808.562 450.482C808.773 450.271 808.773 449.929 808.562 449.718L805.796 446.952C805.585 446.741 805.585 446.399 805.796 446.188L808.022 443.963C808.362 443.622 808.121 443.04 807.64 443.04H803.862Z" fill="white"/>
<path d="M807.445 445.668C807.105 446.008 807.346 446.59 807.828 446.59H811.605C811.749 446.59 811.886 446.533 811.988 446.432L814.977 443.443C815.188 443.232 815.188 442.889 814.977 442.678L809.558 437.259C809.347 437.048 809.005 437.048 808.794 437.259L806.905 439.149C806.694 439.36 806.694 439.702 806.905 439.913L809.671 442.678C809.882 442.889 809.882 443.232 809.671 443.443L807.445 445.668Z" fill="white"/>
<path opacity="0.5" d="M94.457 79.0218C94.1835 79.0218 93.9212 79.1305 93.7278 79.3239L88.0227 85.029C87.6199 85.4317 87.6199 86.0847 88.0227 86.4874L98.3642 96.8289C98.7669 97.2317 99.4198 97.2317 99.8226 96.829L103.428 93.2241C103.83 92.8214 103.83 92.1684 103.428 91.7657L98.1494 86.4874C97.7467 86.0847 97.7467 85.4317 98.1494 85.029L102.396 80.7823C103.046 80.1326 102.586 79.0218 101.667 79.0218H94.457Z" fill="#084ef2"/>
<path d="M101.297 84.036C100.647 84.6857 101.107 85.7965 102.026 85.7965H109.236C109.509 85.7965 109.772 85.6878 109.965 85.4944L115.67 79.7893C116.073 79.3866 116.073 78.7336 115.67 78.3309L105.329 67.9894C104.926 67.5866 104.273 67.5866 103.87 67.9894L100.265 71.5945C99.8626 71.9972 99.8626 72.6502 100.265 73.0529L105.543 78.3309C105.946 78.7336 105.946 79.3866 105.543 79.7893L101.297 84.036Z" fill="#084ef2"/>
<defs>
<filter id="filter0_d" x="0.5" y="0.505295" width="899" height="618" filterUnits="userSpaceOnUse" color-interpolation-filters="sRGB">
<feFlood flood-opacity="0" result="BackgroundImageFix"/>
<feColorMatrix in="SourceAlpha" type="matrix" values="0 0 0 0 0 0 0 0 0 0 0 0 0 0 0 0 0 0 127 0"/>
<feOffset dy="6"/>
<feGaussianBlur stdDeviation="17.5"/>
<feColorMatrix type="matrix" values="0 0 0 0 0.0590972 0 0 0 0 0.134752 0 0 0 0 0.383333 0 0 0 0.15 0"/>
<feBlend mode="normal" in2="BackgroundImageFix" result="effect1_dropShadow"/>
<feBlend mode="normal" in="SourceGraphic" in2="effect1_dropShadow" result="shape"/>
</filter>
<filter id="filter1_d" x="236.874" y="180.691" width="401.918" height="205.561" filterUnits="userSpaceOnUse" color-interpolation-filters="sRGB">
<feFlood flood-opacity="0" result="BackgroundImageFix"/>
<feColorMatrix in="SourceAlpha" type="matrix" values="0 0 0 0 0 0 0 0 0 0 0 0 0 0 0 0 0 0 127 0"/>
<feOffset dy="4.81177"/>
<feGaussianBlur stdDeviation="3.60882"/>
<feColorMatrix type="matrix" values="0 0 0 0 0.233333 0 0 0 0 0.0816667 0 0 0 0 0.0816667 0 0 0 0.03 0"/>
<feBlend mode="normal" in2="BackgroundImageFix" result="effect1_dropShadow"/>
<feBlend mode="normal" in="SourceGraphic" in2="effect1_dropShadow" result="shape"/>
</filter>
<filter id="filter2_d" x="236.874" y="396.178" width="401.918" height="184.86" filterUnits="userSpaceOnUse" color-interpolation-filters="sRGB">
<feFlood flood-opacity="0" result="BackgroundImageFix"/>
<feColorMatrix in="SourceAlpha" type="matrix" values="0 0 0 0 0 0 0 0 0 0 0 0 0 0 0 0 0 0 127 0"/>
<feOffset dy="4.81177"/>
<feGaussianBlur stdDeviation="3.60882"/>
<feColorMatrix type="matrix" values="0 0 0 0 0.233333 0 0 0 0 0.0816667 0 0 0 0 0.0816667 0 0 0 0.03 0"/>
<feBlend mode="normal" in2="BackgroundImageFix" result="effect1_dropShadow"/>
<feBlend mode="normal" in="SourceGraphic" in2="effect1_dropShadow" result="shape"/>
</filter>
<filter id="filter3_d" x="56.1613" y="114.888" width="172.828" height="465.549" filterUnits="userSpaceOnUse" color-interpolation-filters="sRGB">
<feFlood flood-opacity="0" result="BackgroundImageFix"/>
<feColorMatrix in="SourceAlpha" type="matrix" values="0 0 0 0 0 0 0 0 0 0 0 0 0 0 0 0 0 0 127 0"/>
<feOffset dy="4.81177"/>
<feGaussianBlur stdDeviation="3.60882"/>
<feColorMatrix type="matrix" values="0 0 0 0 0.235294 0 0 0 0 0.0823529 0 0 0 0 0.0823529 0 0 0 0.03 0"/>
<feBlend mode="normal" in2="BackgroundImageFix" result="effect1_dropShadow"/>
<feBlend mode="normal" in="SourceGraphic" in2="effect1_dropShadow" result="shape"/>
</filter>
<filter id="filter4_d" x="236.874" y="54.4508" width="608.472" height="117.391" filterUnits="userSpaceOnUse" color-interpolation-filters="sRGB">
<feFlood flood-opacity="0" result="BackgroundImageFix"/>
<feColorMatrix in="SourceAlpha" type="matrix" values="0 0 0 0 0 0 0 0 0 0 0 0 0 0 0 0 0 0 127 0"/>
<feOffset dy="2.40588"/>
<feGaussianBlur stdDeviation="3.60882"/>
<feColorMatrix type="matrix" values="0 0 0 0 0.235294 0 0 0 0 0.0823529 0 0 0 0 0.0823529 0 0 0 0.03 0"/>
<feBlend mode="normal" in2="BackgroundImageFix" result="effect1_dropShadow"/>
<feBlend mode="normal" in="SourceGraphic" in2="effect1_dropShadow" result="shape"/>
</filter>
<filter id="filter5_d" x="645.868" y="181.935" width="203.375" height="190.206" filterUnits="userSpaceOnUse" color-interpolation-filters="sRGB">
<feFlood flood-opacity="0" result="BackgroundImageFix"/>
<feColorMatrix in="SourceAlpha" type="matrix" values="0 0 0 0 0 0 0 0 0 0 0 0 0 0 0 0 0 0 127 0"/>
<feOffset dy="4.81177"/>
<feGaussianBlur stdDeviation="3.60882"/>
<feColorMatrix type="matrix" values="0 0 0 0 0.235294 0 0 0 0 0.0823529 0 0 0 0 0.0823529 0 0 0 0.03 0"/>
<feBlend mode="normal" in2="BackgroundImageFix" result="effect1_dropShadow"/>
<feBlend mode="normal" in="SourceGraphic" in2="effect1_dropShadow" result="shape"/>
</filter>
<filter id="filter6_d" x="645.868" y="379.307" width="203.375" height="201.819" filterUnits="userSpaceOnUse" color-interpolation-filters="sRGB">
<feFlood flood-opacity="0" result="BackgroundImageFix"/>
<feColorMatrix in="SourceAlpha" type="matrix" values="0 0 0 0 0 0 0 0 0 0 0 0 0 0 0 0 0 0 127 0"/>
<feOffset dy="4.81177"/>
<feGaussianBlur stdDeviation="3.60882"/>
<feColorMatrix type="matrix" values="0 0 0 0 0.235294 0 0 0 0 0.0823529 0 0 0 0 0.0823529 0 0 0 0.03 0"/>
<feBlend mode="normal" in2="BackgroundImageFix" result="effect1_dropShadow"/>
<feBlend mode="normal" in="SourceGraphic" in2="effect1_dropShadow" result="shape"/>
</filter>
</defs>
</svg>
