<svg width="203" height="245" viewBox="0 0 203 245" fill="none" xmlns="http://www.w3.org/2000/svg">
<g filter="url(#filter0_d)">
<path d="M24.5605 27.0309C24.5605 23.0447 27.792 19.8132 31.7782 19.8132H170.303C174.289 19.8132 177.521 23.0447 177.521 27.0309V208.677C177.521 212.663 174.289 215.894 170.303 215.894H31.7782C27.792 215.894 24.5605 212.663 24.5605 208.677V27.0309Z" fill="white" fill-opacity="0.01"/>
</g>
<path d="M24.5605 27.0309C24.5605 23.0447 27.792 19.8132 31.7782 19.8132H170.303C174.289 19.8132 177.521 23.0447 177.521 27.0309V208.677C177.521 212.663 174.289 215.894 170.303 215.894H31.7782C27.792 215.894 24.5605 212.663 24.5605 208.677V27.0309Z" fill="white"/>
<path d="M135.317 55.1207H111.976C110.829 55.1207 109.9 56.05 109.9 57.1963C109.9 58.3425 110.829 59.2718 111.976 59.2718H135.317C136.463 59.2718 137.392 58.3425 137.392 57.1963C137.392 56.05 136.463 55.1207 135.317 55.1207Z" fill="#129D59"/>
<path d="M95.6536 55.1207H42.4711C41.3248 55.1207 40.3955 56.05 40.3955 57.1963C40.3955 58.3425 41.3248 59.2718 42.4711 59.2718H95.6536C96.7999 59.2718 97.7291 58.3425 97.7291 57.1963C97.7291 56.05 96.7999 55.1207 95.6536 55.1207Z" fill="#6E7284"/>
<path d="M78.9698 84.0372C78.8037 84.0372 78.6691 84.1719 78.6691 84.338C78.6691 84.504 78.8037 84.6387 78.9698 84.6387V84.0372ZM165.487 84.0372H78.9698V84.6387H165.487V84.0372Z" fill="#F3F3F6"/>
<path d="M71.9957 40.1542H42.968C41.8204 40.1542 40.8901 41.0845 40.8901 42.2321C40.8901 43.3797 41.8204 44.31 42.968 44.31H71.9957C73.1432 44.31 74.0735 43.3797 74.0735 42.2321C74.0735 41.0845 73.1432 40.1542 71.9957 40.1542Z" fill="#E3E4E9"/>
<path d="M66.016 82.2601H42.4734C41.3258 82.2601 40.3955 83.1904 40.3955 84.338C40.3955 85.4856 41.3258 86.4159 42.4734 86.4159H66.016C67.1636 86.4159 68.0939 85.4856 68.0939 84.338C68.0939 83.1904 67.1636 82.2601 66.016 82.2601Z" fill="#E3E4E9"/>
<path d="M79.6935 113.259C79.5274 113.259 79.3927 113.394 79.3927 113.56C79.3927 113.726 79.5274 113.861 79.6935 113.861V113.259ZM165.487 113.259H79.6935V113.861H165.487V113.259Z" fill="#F3F3F6"/>
<path d="M63 112.76H42.4734C41.3258 112.76 40.3955 113.69 40.3955 114.838C40.3955 115.985 41.3258 116.916 42.4734 116.916H63C64.1476 116.916 65.0779 115.985 65.0779 114.838C65.0779 113.69 64.1476 112.76 63 112.76Z" fill="#E3E4E9"/>
<path d="M79.211 144.697C79.0449 144.697 78.9103 144.832 78.9103 144.998C78.9103 145.164 79.0449 145.299 79.211 145.299V144.697ZM165.487 144.697H79.211V145.299H165.487V144.697Z" fill="#F3F3F6"/>
<path d="M59.8063 142.92H42.4734C41.3258 142.92 40.3955 143.85 40.3955 144.998C40.3955 146.145 41.3258 147.076 42.4734 147.076H59.8063C60.9539 147.076 61.8842 146.145 61.8842 144.998C61.8842 143.85 60.9539 142.92 59.8063 142.92Z" fill="#E3E4E9"/>
<path d="M79.0904 174.857C78.9243 174.857 78.7897 174.991 78.7897 175.157C78.7897 175.323 78.9243 175.458 79.0904 175.458V174.857ZM165.487 174.857H79.0904V175.458H165.487V174.857Z" fill="#F3F3F6"/>
<path d="M56.5087 173.08H42.4734C41.3258 173.08 40.3955 174.01 40.3955 175.158C40.3955 176.305 41.3258 177.236 42.4734 177.236H56.5087C57.6563 177.236 58.5866 176.305 58.5866 175.158C58.5866 174.01 57.6563 173.08 56.5087 173.08Z" fill="#E3E4E9"/>
<path d="M106.151 191.21H91.3938C90.2462 191.21 89.3159 192.14 89.3159 193.288C89.3159 194.435 90.2462 195.366 91.3938 195.366H106.151C107.298 195.366 108.228 194.435 108.228 193.288C108.228 192.14 107.298 191.21 106.151 191.21Z" fill="#E3E4E9"/>
<path d="M151.904 191.21H137.147C135.999 191.21 135.069 192.14 135.069 193.288C135.069 194.435 135.999 195.366 137.147 195.366H151.904C153.051 195.366 153.982 194.435 153.982 193.288C153.982 192.14 153.051 191.21 151.904 191.21Z" fill="#E3E4E9"/>
<path d="M103.884 176.604V134.98C103.884 132.157 101.595 129.868 98.7717 129.868H98.7717C95.9483 129.868 93.6594 132.157 93.6594 134.98V176.604C93.6594 179.427 95.9483 181.716 98.7717 181.716H98.7717C101.595 181.716 103.884 179.427 103.884 176.604Z" fill="#084ef2"/>
<path d="M149.638 176.605V150.11C149.638 147.287 147.349 144.998 144.526 144.998H144.526C141.702 144.998 139.413 147.287 139.413 150.11V176.605C139.413 179.428 141.702 181.717 144.526 181.717H144.526C147.349 181.717 149.638 179.428 149.638 176.605Z" fill="#084ef2"/>
<defs>
<filter id="filter0_d" x="0.501747" y="0.56617" width="201.078" height="244.198" filterUnits="userSpaceOnUse" color-interpolation-filters="sRGB">
<feFlood flood-opacity="0" result="BackgroundImageFix"/>
<feColorMatrix in="SourceAlpha" type="matrix" values="0 0 0 0 0 0 0 0 0 0 0 0 0 0 0 0 0 0 127 0"/>
<feOffset dy="4.81177"/>
<feGaussianBlur stdDeviation="12.0294"/>
<feColorMatrix type="matrix" values="0 0 0 0 0.235294 0 0 0 0 0.0823529 0 0 0 0 0.0823529 0 0 0 0.08 0"/>
<feBlend mode="normal" in2="BackgroundImageFix" result="effect1_dropShadow"/>
<feBlend mode="normal" in="SourceGraphic" in2="effect1_dropShadow" result="shape"/>
</filter>
</defs>
</svg>
