<svg width="319" height="210" viewBox="0 0 319 210" fill="none" xmlns="http://www.w3.org/2000/svg">
<g clip-path="url(#clip0)">
<g filter="url(#filter0_d)">
<rect x="18.1398" y="11.6864" width="280.997" height="174.521" rx="28" fill="#F22122" fill-opacity="0.01"/>
</g>
<rect x="13.287" y="8.47537" width="292.483" height="184.081" rx="27.3985" fill="#F22122" stroke="#F22122" stroke-width="1.20294"/>
<mask id="mask0" mask-type="alpha" maskUnits="userSpaceOnUse" x="12" y="7" width="295" height="187">
<rect x="12.6856" y="7.8739" width="293.686" height="185.284" rx="28" fill="#F22122"/>
</mask>
<g mask="url(#mask0)">
<g opacity="0.3">
<path fill-rule="evenodd" clip-rule="evenodd" d="M312.821 121.454C330.836 145.302 317.788 161.785 317.111 181.577C316.394 202.635 330.857 231.18 308.747 240.817C286.212 250.642 243.73 244.916 204.172 230.812C168.063 217.942 145.679 187.999 110.891 170.286C68.6689 148.785 16.275 145.866 -16.8183 118.287C-50.0481 90.5956 -57.1566 58.6373 -46.9126 38.7849C-37.2048 19.9724 8.44591 26.4889 34.8439 18.1712C61.5607 9.75498 67.7068 -18.3843 108.352 -10.134C148.936 -1.89667 185.105 32.2173 222.452 56.2525C255.311 77.399 294.517 97.2201 312.821 121.454Z" stroke="#1218dc" stroke-width="2.40588"/>
<path fill-rule="evenodd" clip-rule="evenodd" d="M293.87 120.914C309.859 142.085 298.275 156.72 297.676 174.291C297.036 192.987 309.88 218.328 290.249 226.886C270.245 235.607 232.527 230.522 197.406 218.003C165.351 206.575 145.478 179.993 114.593 164.267C77.1079 145.178 30.5926 142.586 1.21226 118.103C-28.2893 93.519 -34.6 65.1468 -25.5053 47.521C-16.8869 30.8193 23.6418 36.6045 47.0781 29.2204C70.7977 21.7469 76.2543 -3.23504 112.339 4.08937C148.369 11.4025 180.48 41.6888 213.637 63.0274C242.808 81.8012 277.618 99.3986 293.87 120.914Z" stroke="#1218dc" stroke-width="2.40588"/>
<path fill-rule="evenodd" clip-rule="evenodd" d="M274.282 120.355C288.184 138.761 278.112 151.482 277.591 166.759C277.035 183.014 288.2 205.047 271.134 212.487C253.743 220.069 220.951 215.648 190.417 204.762C162.548 194.827 145.271 171.718 118.419 158.046C85.8298 141.451 45.3897 139.197 19.847 117.911C-5.80166 96.5382 -11.2884 71.8705 -3.3814 56.5478C4.11222 42.0273 39.347 47.0572 59.7224 40.6374C80.3441 34.1399 85.088 12.4208 116.46 18.7885C147.784 25.1465 175.701 51.4774 204.526 70.029C229.889 86.3509 260.151 101.65 274.282 120.355Z" stroke="#1218dc" stroke-width="2.40588"/>
<path fill-rule="evenodd" clip-rule="evenodd" d="M256.122 119.837C268.088 135.68 259.421 146.631 258.972 159.779C258.494 173.772 268.104 192.735 253.415 199.138C238.444 205.664 210.218 201.858 183.936 192.49C159.949 183.938 145.078 164.047 121.966 152.277C93.9161 137.995 59.1071 136.054 37.1209 117.734C15.0443 99.3382 10.3217 78.1046 17.1266 64.9158C23.5763 52.4176 53.9048 56.7467 71.4425 51.221C89.1925 45.6282 93.2756 26.9339 120.278 32.4147C147.241 37.8875 171.27 60.5513 196.082 76.5194C217.913 90.5682 243.961 103.737 256.122 119.837Z" stroke="#1218dc" stroke-width="2.40588"/>
<path fill-rule="evenodd" clip-rule="evenodd" d="M237.214 119.297C247.162 132.471 239.956 141.577 239.583 152.511C239.185 164.146 247.176 179.912 234.96 185.238C222.514 190.664 199.045 187.5 177.189 179.711C157.244 172.598 144.878 156.059 125.659 146.274C102.335 134.396 73.392 132.783 55.1095 117.548C36.7522 102.251 32.8252 84.596 38.4838 73.6293C43.8467 63.2368 69.0656 66.8367 83.6486 62.2411C98.4079 57.5908 101.803 42.0459 124.257 46.6036C146.676 51.1541 166.658 69.9996 187.288 83.2773C205.442 94.9601 227.101 105.91 237.214 119.297Z" stroke="#1218dc" stroke-width="2.40588"/>
</g>
</g>
<circle cx="42.388" cy="99.7806" r="2.90218" fill="white"/>
<circle cx="53.9113" cy="99.7806" r="2.90218" fill="white"/>
<circle cx="65.4344" cy="99.7806" r="2.90218" fill="white"/>
<circle cx="76.9577" cy="99.7806" r="2.90218" fill="white"/>
<circle cx="107.868" cy="99.7806" r="2.90218" fill="white"/>
<circle cx="119.391" cy="99.7806" r="2.90218" fill="white"/>
<circle cx="130.915" cy="99.7806" r="2.90218" fill="white"/>
<circle cx="142.438" cy="99.7806" r="2.90218" fill="white"/>
<circle cx="177.008" cy="99.7806" r="2.90218" fill="white"/>
<circle cx="188.532" cy="99.7806" r="2.90218" fill="white"/>
<circle cx="200.055" cy="99.7806" r="2.90218" fill="white"/>
<circle cx="211.578" cy="99.7806" r="2.90218" fill="white"/>
<path d="M238.37 103.855C238.988 103.855 239.529 103.725 239.994 103.464C240.463 103.2 240.828 102.833 241.089 102.364C241.353 101.895 241.486 101.353 241.486 100.74V97.9489C241.486 97.3314 241.353 96.7901 241.089 96.325C240.828 95.8558 240.463 95.4909 239.994 95.2303C239.529 94.9656 238.988 94.8333 238.37 94.8333C237.752 94.8333 237.209 94.9656 236.74 95.2303C236.275 95.4909 235.91 95.8558 235.645 96.325C235.385 96.7901 235.254 97.3314 235.254 97.9489V100.74C235.254 101.353 235.385 101.895 235.645 102.364C235.91 102.833 236.275 103.2 236.74 103.464C237.209 103.725 237.752 103.855 238.37 103.855ZM238.37 102.478C238.065 102.478 237.789 102.406 237.54 102.261C237.295 102.113 237.099 101.917 236.951 101.672C236.806 101.423 236.734 101.147 236.734 100.842V97.8407C236.734 97.5319 236.806 97.2552 236.951 97.0106C237.099 96.762 237.295 96.5655 237.54 96.4212C237.789 96.2728 238.065 96.1986 238.37 96.1986C238.675 96.1986 238.949 96.2728 239.194 96.4212C239.443 96.5655 239.639 96.762 239.783 97.0106C239.932 97.2552 240.006 97.5319 240.006 97.8407V100.842C240.006 101.147 239.932 101.423 239.783 101.672C239.639 101.917 239.443 102.113 239.194 102.261C238.949 102.406 238.675 102.478 238.37 102.478ZM250.498 103.855C251.116 103.855 251.657 103.725 252.122 103.464C252.591 103.2 252.956 102.833 253.217 102.364C253.481 101.895 253.614 101.353 253.614 100.74V97.9489C253.614 97.3314 253.481 96.7901 253.217 96.325C252.956 95.8558 252.591 95.4909 252.122 95.2303C251.657 94.9656 251.116 94.8333 250.498 94.8333C249.881 94.8333 249.337 94.9656 248.868 95.2303C248.403 95.4909 248.038 95.8558 247.773 96.325C247.513 96.7901 247.382 97.3314 247.382 97.9489V100.74C247.382 101.353 247.513 101.895 247.773 102.364C248.038 102.833 248.403 103.2 248.868 103.464C249.337 103.725 249.881 103.855 250.498 103.855ZM250.498 102.478C250.193 102.478 249.917 102.406 249.668 102.261C249.423 102.113 249.227 101.917 249.079 101.672C248.934 101.423 248.862 101.147 248.862 100.842V97.8407C248.862 97.5319 248.934 97.2552 249.079 97.0106C249.227 96.762 249.423 96.5655 249.668 96.4212C249.917 96.2728 250.193 96.1986 250.498 96.1986C250.803 96.1986 251.078 96.2728 251.322 96.4212C251.571 96.5655 251.767 96.762 251.912 97.0106C252.06 97.2552 252.134 97.5319 252.134 97.8407V100.842C252.134 101.147 252.06 101.423 251.912 101.672C251.767 101.917 251.571 102.113 251.322 102.261C251.078 102.406 250.803 102.478 250.498 102.478ZM262.626 103.855C263.244 103.855 263.785 103.725 264.25 103.464C264.719 103.2 265.084 102.833 265.345 102.364C265.609 101.895 265.742 101.353 265.742 100.74V97.9489C265.742 97.3314 265.609 96.7901 265.345 96.325C265.084 95.8558 264.719 95.4909 264.25 95.2303C263.785 94.9656 263.244 94.8333 262.626 94.8333C262.009 94.8333 261.465 94.9656 260.996 95.2303C260.531 95.4909 260.166 95.8558 259.902 96.325C259.641 96.7901 259.511 97.3314 259.511 97.9489V100.74C259.511 101.353 259.641 101.895 259.902 102.364C260.166 102.833 260.531 103.2 260.996 103.464C261.465 103.725 262.009 103.855 262.626 103.855ZM262.626 102.478C262.321 102.478 262.045 102.406 261.796 102.261C261.552 102.113 261.355 101.917 261.207 101.672C261.062 101.423 260.99 101.147 260.99 100.842V97.8407C260.99 97.5319 261.062 97.2552 261.207 97.0106C261.355 96.762 261.552 96.5655 261.796 96.4212C262.045 96.2728 262.321 96.1986 262.626 96.1986C262.931 96.1986 263.206 96.2728 263.45 96.4212C263.699 96.5655 263.895 96.762 264.04 97.0106C264.188 97.2552 264.262 97.5319 264.262 97.8407V100.842C264.262 101.147 264.188 101.423 264.04 101.672C263.895 101.917 263.699 102.113 263.45 102.261C263.206 102.406 262.931 102.478 262.626 102.478ZM272.078 103.675H273.642L276.613 96.3851V95.0137H271.278V96.3851H275.061L272.078 103.675Z" fill="white"/>
<path d="M251.539 160.626H252.87V152.831H251.539L250.077 153.708V155.148L251.539 154.254V160.626ZM254.716 160.615H260.081V159.386H256.735L258.733 157.616C259.029 157.356 259.276 157.12 259.474 156.907C259.676 156.69 259.828 156.458 259.929 156.209C260.03 155.956 260.081 155.644 260.081 155.272C260.081 154.763 259.965 154.314 259.734 153.924C259.507 153.531 259.196 153.224 258.803 153.004C258.41 152.78 257.962 152.668 257.461 152.668C256.923 152.668 256.448 152.775 256.037 152.988C255.625 153.201 255.304 153.5 255.073 153.886C254.842 154.272 254.727 154.725 254.727 155.245H256.069C256.062 155.007 256.116 154.785 256.232 154.579C256.347 154.373 256.508 154.209 256.714 154.087C256.923 153.96 257.163 153.897 257.433 153.897C257.82 153.897 258.134 154.027 258.375 154.287C258.621 154.543 258.743 154.866 258.743 155.256C258.743 155.447 258.691 155.646 258.587 155.851C258.485 156.057 258.307 156.275 258.051 156.506L254.716 159.478V160.615ZM263.352 152.831H264.662L262.584 160.626H261.274L263.352 152.831ZM265.849 160.615H271.214V159.386H267.868L269.866 157.616C270.162 157.356 270.409 157.12 270.607 156.907C270.809 156.69 270.961 156.458 271.062 156.209C271.163 155.956 271.214 155.644 271.214 155.272C271.214 154.763 271.098 154.314 270.867 153.924C270.64 153.531 270.329 153.224 269.936 153.004C269.543 152.78 269.095 152.668 268.594 152.668C268.056 152.668 267.581 152.775 267.17 152.988C266.759 153.201 266.437 153.5 266.206 153.886C265.975 154.272 265.86 154.725 265.86 155.245H267.202C267.195 155.007 267.249 154.785 267.365 154.579C267.48 154.373 267.641 154.209 267.847 154.087C268.056 153.96 268.296 153.897 268.567 153.897C268.953 153.897 269.267 154.027 269.508 154.287C269.754 154.543 269.877 154.866 269.877 155.256C269.877 155.447 269.824 155.646 269.72 155.851C269.619 156.057 269.44 156.275 269.184 156.506L265.849 159.478V160.615ZM274.745 160.772C275.232 160.772 275.676 160.66 276.077 160.436C276.481 160.209 276.802 159.9 277.04 159.511C277.282 159.121 277.403 158.681 277.403 158.19C277.403 157.796 277.329 157.43 277.181 157.091C277.033 156.752 276.819 156.465 276.537 156.23C276.256 155.996 275.915 155.837 275.514 155.754L277.273 154.065V152.831H272.493V154.059H275.72L273.468 155.987L274.063 157.015C274.287 156.892 274.513 156.831 274.74 156.831C275.133 156.831 275.454 156.961 275.703 157.221C275.952 157.481 276.077 157.804 276.077 158.19C276.077 158.572 275.949 158.892 275.693 159.148C275.44 159.404 275.122 159.534 274.74 159.538C274.455 159.541 274.191 159.46 273.95 159.294C273.708 159.124 273.542 158.884 273.452 158.574L272.19 158.915C272.302 159.29 272.484 159.619 272.737 159.9C272.993 160.178 273.295 160.393 273.641 160.545C273.987 160.696 274.356 160.772 274.745 160.772Z" fill="white"/>
<path d="M39.0749 160.626H40.2983V155.629L42.6855 160.626H43.2052L45.5979 155.629V160.626H46.8158V152.831H45.6412L42.9454 158.352L40.2496 152.831H39.0749V160.626ZM49.9714 160.788C50.437 160.788 50.8321 160.712 51.1569 160.561C51.4853 160.406 51.774 160.166 52.023 159.841V160.626H53.1652V157.037C53.1652 156.784 53.1544 156.551 53.1328 156.338C53.1111 156.122 53.0479 155.911 52.9433 155.705C52.752 155.319 52.4579 155.041 52.0609 154.871C51.6676 154.702 51.2111 154.617 50.6914 154.617C50.0057 154.617 49.459 154.767 49.0512 155.066C48.6434 155.366 48.3673 155.763 48.2229 156.257L49.4139 156.631C49.5113 156.331 49.6827 156.12 49.9281 155.997C50.1735 155.875 50.4279 155.813 50.6914 155.813C51.0884 155.813 51.3807 155.895 51.5683 156.057C51.756 156.216 51.8624 156.463 51.8877 156.799C51.3753 156.874 50.8989 156.948 50.4586 157.021C50.0219 157.089 49.6502 157.174 49.3435 157.275C48.8816 157.434 48.5441 157.659 48.3312 157.952C48.1183 158.24 48.0118 158.598 48.0118 159.023C48.0118 159.345 48.0858 159.639 48.2338 159.906C48.3853 160.173 48.6073 160.388 48.8996 160.55C49.1919 160.709 49.5492 160.788 49.9714 160.788ZM50.2313 159.749C49.9245 159.749 49.6899 159.678 49.5275 159.538C49.3687 159.397 49.2894 159.22 49.2894 159.007C49.2894 158.816 49.3507 158.661 49.4734 158.542C49.5997 158.423 49.7747 158.321 49.9985 158.238C50.2042 158.17 50.4514 158.11 50.7401 158.06C51.0288 158.006 51.4059 157.943 51.8715 157.87C51.8679 158.008 51.8588 158.161 51.8444 158.331C51.83 158.497 51.7957 158.646 51.7416 158.78C51.6982 158.913 51.6134 159.056 51.4871 159.207C51.3644 159.359 51.1984 159.487 50.9891 159.592C50.7798 159.696 50.5272 159.749 50.2313 159.749ZM56.7669 160.794C57.1891 160.794 57.559 160.721 57.8766 160.577C58.1978 160.429 58.4648 160.229 58.6778 159.976V160.626H59.8308V154.779H58.5208V157.784C58.5208 158.257 58.4522 158.623 58.3151 158.883C58.1816 159.139 58.0101 159.318 57.8008 159.419C57.5915 159.516 57.375 159.565 57.1512 159.565C56.8409 159.565 56.5937 159.498 56.4096 159.364C56.2256 159.227 56.0884 159.056 55.9982 158.85C55.9116 158.641 55.8539 158.424 55.825 158.201C55.7997 157.977 55.7871 157.775 55.7871 157.594V154.779H54.4663V158.044C54.4663 158.181 54.4771 158.363 54.4988 158.59C54.524 158.818 54.5763 159.058 54.6557 159.31C54.7351 159.563 54.8578 159.803 55.0238 160.03C55.1898 160.254 55.4136 160.438 55.6951 160.582C55.9802 160.723 56.3374 160.794 56.7669 160.794ZM61.3517 160.626H62.6617V157.654C62.6617 157.315 62.723 157.013 62.8457 156.75C62.972 156.486 63.1687 156.283 63.4358 156.138C63.6162 156.034 63.8183 155.972 64.042 155.954C64.2658 155.932 64.4661 155.947 64.6429 155.997V154.779C64.3795 154.74 64.1088 154.745 63.8309 154.796C63.553 154.843 63.3058 154.94 63.0893 155.088C62.9666 155.164 62.8565 155.256 62.7591 155.364C62.6617 155.469 62.5769 155.586 62.5047 155.716V154.779H61.3517V160.626ZM68.1523 160.788C68.7369 160.788 69.2476 160.658 69.6842 160.398C70.1209 160.135 70.4601 159.772 70.7019 159.31C70.9473 158.845 71.07 158.309 71.07 157.703C71.07 157.1 70.9491 156.568 70.7073 156.106C70.4655 155.64 70.1263 155.276 69.6896 155.012C69.253 154.749 68.7405 154.617 68.1523 154.617C67.5785 154.617 67.0732 154.747 66.6366 155.007C66.1999 155.267 65.8589 155.628 65.6135 156.089C65.3681 156.551 65.2454 157.089 65.2454 157.703C65.2454 158.305 65.3645 158.839 65.6027 159.305C65.8444 159.767 66.1837 160.13 66.6203 160.393C67.057 160.656 67.5677 160.788 68.1523 160.788ZM68.1523 159.565C67.6507 159.565 67.2699 159.397 67.0101 159.061C66.7539 158.722 66.6258 158.269 66.6258 157.703C66.6258 157.15 66.7485 156.703 66.9939 156.36C67.2429 156.014 67.629 155.84 68.1523 155.84C68.6647 155.84 69.0491 156.01 69.3053 156.349C69.5615 156.685 69.6896 157.136 69.6896 157.703C69.6896 158.251 69.5615 158.699 69.3053 159.045C69.0527 159.392 68.6684 159.565 68.1523 159.565ZM77.3154 160.788C77.8495 160.788 78.3493 160.698 78.8148 160.517C79.2804 160.337 79.6557 160.066 79.9408 159.705C80.2295 159.345 80.3739 158.895 80.3739 158.358C80.3739 157.971 80.3017 157.652 80.1573 157.399C80.0166 157.143 79.8343 156.938 79.6106 156.782C79.3905 156.627 79.1613 156.506 78.9231 156.42C78.6885 156.333 78.4756 156.264 78.2843 156.214L76.8877 155.824C76.7145 155.777 76.5413 155.72 76.3681 155.651C76.1948 155.579 76.0505 155.483 75.935 155.364C75.8195 155.241 75.7618 155.084 75.7618 154.893C75.7618 154.691 75.8285 154.514 75.9621 154.363C76.0992 154.211 76.2778 154.094 76.498 154.011C76.7217 153.928 76.9635 153.89 77.2234 153.897C77.6239 153.908 77.9848 154.025 78.306 154.249C78.6272 154.473 78.8293 154.79 78.9123 155.202L80.3143 154.958C80.1411 154.236 79.7856 153.679 79.2479 153.285C78.7102 152.888 78.0408 152.686 77.2396 152.679C76.7127 152.675 76.2327 152.76 75.7997 152.934C75.3702 153.103 75.0274 153.358 74.7712 153.697C74.5185 154.036 74.3922 154.456 74.3922 154.958C74.3922 155.301 74.4482 155.59 74.56 155.824C74.6755 156.055 74.8217 156.245 74.9985 156.393C75.179 156.541 75.3684 156.658 75.5669 156.744C75.769 156.831 75.9567 156.9 76.1299 156.95L78.1436 157.546C78.721 157.719 79.0097 158.018 79.0097 158.444C79.0097 158.682 78.9321 158.886 78.777 159.056C78.6254 159.222 78.4269 159.348 78.1815 159.435C77.9361 159.521 77.6745 159.565 77.3966 159.565C76.9274 159.565 76.5124 159.438 76.1515 159.186C75.7943 158.933 75.5579 158.576 75.4424 158.114L74.0891 158.32C74.1721 158.829 74.3597 159.269 74.6521 159.641C74.948 160.009 75.3233 160.292 75.778 160.49C76.2363 160.689 76.7488 160.788 77.3154 160.788ZM81.6538 153.892H82.9584V152.695H81.6538V153.892ZM81.6538 160.626H82.9584V154.779H81.6538V160.626ZM87.1187 160.788C87.7719 160.788 88.3241 160.629 88.7752 160.312C89.2263 159.991 89.5421 159.532 89.7225 158.937L88.3909 158.639C88.2898 158.939 88.1382 159.168 87.9361 159.327C87.7377 159.485 87.4652 159.565 87.1187 159.565C86.6279 159.565 86.258 159.393 86.009 159.05C85.7636 158.708 85.6391 158.258 85.6355 157.703C85.6391 157.165 85.7582 156.721 85.9928 156.371C86.231 156.017 86.6063 155.84 87.1187 155.84C87.4183 155.84 87.6853 155.929 87.9199 156.106C88.1545 156.279 88.3223 156.522 88.4233 156.836L89.7225 156.485C89.5854 155.907 89.2858 155.452 88.8239 155.12C88.362 154.785 87.799 154.617 87.135 154.617C86.5431 154.617 86.0325 154.751 85.603 155.018C85.1736 155.281 84.8416 155.646 84.607 156.111C84.376 156.573 84.2588 157.104 84.2551 157.703C84.2588 158.291 84.3724 158.818 84.5962 159.283C84.8235 159.749 85.1501 160.117 85.576 160.388C86.0018 160.655 86.5161 160.788 87.1187 160.788ZM92.3469 160.788C92.8125 160.788 93.2076 160.712 93.5324 160.561C93.8608 160.406 94.1495 160.166 94.3985 159.841V160.626H95.5407V157.037C95.5407 156.784 95.5299 156.551 95.5083 156.338C95.4866 156.122 95.4234 155.911 95.3188 155.705C95.1275 155.319 94.8334 155.041 94.4364 154.871C94.0431 154.702 93.5866 154.617 93.0669 154.617C92.3812 154.617 91.8345 154.767 91.4267 155.066C91.0189 155.366 90.7428 155.763 90.5984 156.257L91.7894 156.631C91.8868 156.331 92.0582 156.12 92.3036 155.997C92.549 155.875 92.8034 155.813 93.0669 155.813C93.4639 155.813 93.7562 155.895 93.9438 156.057C94.1315 156.216 94.2379 156.463 94.2632 156.799C93.7508 156.874 93.2744 156.948 92.8341 157.021C92.3974 157.089 92.0257 157.174 91.719 157.275C91.2571 157.434 90.9196 157.659 90.7067 157.952C90.4938 158.24 90.3873 158.598 90.3873 159.023C90.3873 159.345 90.4613 159.639 90.6093 159.906C90.7608 160.173 90.9828 160.388 91.2751 160.55C91.5674 160.709 91.9247 160.788 92.3469 160.788ZM92.6068 159.749C92.3 159.749 92.0654 159.678 91.903 159.538C91.7442 159.397 91.6649 159.22 91.6649 159.007C91.6649 158.816 91.7262 158.661 91.8489 158.542C91.9752 158.423 92.1502 158.321 92.374 158.238C92.5797 158.17 92.8269 158.11 93.1156 158.06C93.4043 158.006 93.7814 157.943 94.247 157.87C94.2434 158.008 94.2343 158.161 94.2199 158.331C94.2055 158.497 94.1712 158.646 94.117 158.78C94.0737 158.913 93.9889 159.056 93.8626 159.207C93.7399 159.359 93.5739 159.487 93.3646 159.592C93.1553 159.696 92.9027 159.749 92.6068 159.749ZM96.95 160.626H98.26V157.654C98.26 157.315 98.3214 157.013 98.4441 156.75C98.5704 156.486 98.7671 156.283 99.0341 156.138C99.2146 156.034 99.4167 155.972 99.6404 155.954C99.8642 155.932 100.064 155.947 100.241 155.997V154.779C99.9778 154.74 99.7072 154.745 99.4293 154.796C99.1514 154.843 98.9042 154.94 98.6877 155.088C98.565 155.164 98.4549 155.256 98.3575 155.364C98.26 155.469 98.1752 155.586 98.1031 155.716V154.779H96.95V160.626ZM103.512 160.788C103.859 160.788 104.171 160.736 104.449 160.631C104.727 160.526 104.97 160.38 105.18 160.193V160.626H106.333V152.831H105.017V155.066C104.822 154.922 104.604 154.812 104.362 154.736C104.121 154.657 103.854 154.617 103.561 154.617C103.009 154.617 102.529 154.751 102.121 155.018C101.717 155.285 101.403 155.651 101.179 156.117C100.956 156.582 100.844 157.111 100.844 157.703C100.844 158.287 100.954 158.812 101.174 159.278C101.394 159.743 101.704 160.111 102.105 160.382C102.506 160.653 102.975 160.788 103.512 160.788ZM103.713 159.619C103.374 159.619 103.094 159.534 102.874 159.364C102.654 159.191 102.489 158.96 102.381 158.672C102.276 158.383 102.224 158.06 102.224 157.703C102.224 157.349 102.278 157.028 102.387 156.739C102.498 156.447 102.666 156.216 102.89 156.046C103.117 155.873 103.406 155.786 103.756 155.786C104.254 155.786 104.615 155.963 104.839 156.317C105.066 156.67 105.18 157.132 105.18 157.703C105.18 158.269 105.066 158.731 104.839 159.088C104.615 159.442 104.24 159.619 103.713 159.619Z" fill="white"/>
<path d="M56.5081 45.5862C56.5019 46.886 56.2285 47.8881 55.6038 48.7831C55.2039 49.3561 55.1803 49.3698 55.572 49.9191C56.3038 50.9449 56.5922 52.0927 56.4913 53.324C56.3406 55.1588 55.5303 56.6056 53.8225 57.4346C52.3714 58.139 50.6344 57.7902 49.4454 56.6978C47.7302 55.1221 47.2675 52.0797 48.8394 49.8811C49.1926 49.3872 49.1863 49.3829 48.8307 48.856C47.5863 47.0112 47.5428 44.6744 48.7298 42.8913C50.5229 40.1977 54.167 40.2811 55.8342 43.1865C56.2951 43.9893 56.5305 44.8663 56.5081 45.5862Z" fill="white"/>
<path d="M47.4871 42.9805C46.6289 44.9716 46.6364 46.8731 47.5718 48.7409C47.4379 48.8928 47.2853 48.8337 47.1533 48.8337C44.3525 48.8374 41.5511 48.8368 38.7503 48.8368C38.6675 48.8368 38.5834 48.8293 38.5012 48.8374C38.2185 48.8654 38.1344 48.716 38.1574 48.4644C38.1593 48.4438 38.1574 48.4226 38.1574 48.4021C38.1574 46.7423 38.1543 45.0825 38.1593 43.4221C38.1605 42.9531 38.1724 42.9413 38.6519 42.9406C41.4739 42.9369 44.2958 42.9382 47.1172 42.94C47.2181 42.9406 47.319 42.9618 47.4871 42.9805Z" fill="white"/>
<path d="M47.5443 50.0102C46.635 51.9086 46.6368 53.8324 47.4758 55.7407C47.2678 55.846 47.1002 55.8105 46.9383 55.8105C44.221 55.813 41.5043 55.8123 38.7869 55.8123C38.6829 55.8123 38.5789 55.8049 38.4762 55.8123C38.2301 55.831 38.1542 55.709 38.1548 55.4779C38.1598 53.7359 38.1598 51.9933 38.1567 50.2513C38.156 50.0177 38.2501 49.905 38.4867 49.9162C38.5901 49.9212 38.6941 49.9149 38.7975 49.9149C41.5149 49.9149 44.2316 49.9143 46.9489 49.9162C47.1301 49.9162 47.3194 49.8813 47.5443 50.0102Z" fill="white"/>
<path d="M56.8816 55.8124C57.7485 53.8281 57.7248 51.9198 56.8647 50.0551C56.9924 49.8689 57.1487 49.9175 57.2833 49.9175C60.0647 49.9143 62.8462 49.9137 65.6271 49.9162C66.1727 49.9168 66.1795 49.9249 66.1807 50.468C66.1845 52.1079 66.1751 53.7477 66.1876 55.387C66.1901 55.7071 66.0904 55.8186 65.7635 55.8173C62.8381 55.808 59.9122 55.8124 56.8816 55.8124Z" fill="white"/>
<path d="M56.8286 48.7746C57.2216 47.846 57.5174 46.918 57.5137 45.9009C57.51 44.8907 57.3312 43.936 56.9171 43.0317C57.0946 42.8965 57.2658 42.942 57.4253 42.9413C60.1407 42.9382 62.8562 42.9395 65.5716 42.9395C65.675 42.9395 65.779 42.9426 65.8824 42.9426C66.0873 42.9426 66.1814 43.0454 66.1801 43.249C66.1782 43.5803 66.182 43.9123 66.182 44.2436C66.182 45.6325 66.1745 47.0214 66.1876 48.4102C66.1907 48.7273 66.0954 48.8437 65.7666 48.8425C62.8649 48.8313 59.9626 48.835 57.0609 48.8313C57.0042 48.8313 56.9482 48.8045 56.8286 48.7746Z" fill="white"/>
<path d="M43.2013 41.9055C41.7508 41.9055 40.3002 41.9061 38.8491 41.9055C38.0955 41.9048 38.1596 41.9441 38.1565 41.1855C38.1553 40.833 38.1889 40.4774 38.1503 40.1292C38.0089 38.8605 39.4451 37.6099 40.6415 37.6249C41.4705 37.6355 42.2995 37.6268 43.1284 37.6268C45.7187 37.6268 48.3096 37.6268 50.8999 37.6268C51.045 37.6268 51.1901 37.633 51.3352 37.6274C51.5351 37.6199 51.6454 37.689 51.6429 37.9101C51.6373 38.4906 51.6398 39.0704 51.6435 39.6509C51.6447 39.8801 51.5395 39.9611 51.3122 40.0015C50.1936 40.2033 49.26 40.7614 48.4946 41.5847C48.2554 41.8426 48.0063 41.9123 47.6781 41.9098C46.1858 41.8992 44.6935 41.9055 43.2013 41.9055Z" fill="white"/>
<path d="M45.8397 61.088C44.1401 61.088 42.4398 61.0862 40.7402 61.0887C39.6889 61.0899 38.9278 60.606 38.4046 59.7135C38.2446 59.4401 38.1555 59.148 38.1567 58.8291C38.1586 58.3109 38.1524 57.7927 38.1586 57.2746C38.1642 56.8199 38.1698 56.8131 38.6569 56.8112C39.9834 56.8075 41.31 56.8099 42.6372 56.8099C44.3369 56.8099 46.0372 56.8149 47.7368 56.805C48.0227 56.8031 48.2238 56.8666 48.43 57.0939C49.1705 57.9098 50.0798 58.4579 51.1648 58.7108C51.6393 58.8216 51.6425 58.7245 51.6437 59.3224C51.6443 59.7783 51.6325 60.2348 51.6474 60.6907C51.6568 60.984 51.5472 61.0968 51.2507 61.0918C50.5251 61.0787 49.7996 61.0887 49.074 61.0887C47.9959 61.088 46.9178 61.088 45.8397 61.088Z" fill="white"/>
<path d="M58.4695 37.6268C60.1492 37.6268 61.8302 37.6629 63.508 37.6156C64.9231 37.5757 66.3219 38.9222 66.188 40.2812C66.1475 40.6923 66.1743 41.1102 66.1836 41.525C66.1892 41.7797 66.1008 41.9198 65.828 41.9049C65.7246 41.8993 65.6206 41.9055 65.5172 41.9055C62.5931 41.9055 59.6696 41.9005 56.7455 41.9123C56.3912 41.9136 56.1165 41.8407 55.8699 41.5692C55.1076 40.7302 54.1596 40.2033 53.0442 40.0003C52.8069 39.9573 52.7278 39.8521 52.729 39.6335C52.7322 39.0941 52.7421 38.5548 52.7247 38.016C52.7153 37.719 52.8212 37.6193 53.1183 37.6224C54.3209 37.6349 55.5236 37.6274 56.7262 37.6274C57.3086 37.6268 57.889 37.6268 58.4695 37.6268Z" fill="white"/>
<path d="M58.4744 61.0879C56.753 61.0879 55.0315 61.0898 53.3101 61.0867C52.7377 61.0854 52.7358 61.0798 52.7309 60.5025C52.7277 60.0877 52.7502 59.6716 52.724 59.2587C52.7028 58.9274 52.8249 58.7748 53.1494 58.7169C53.9628 58.5711 54.6709 58.1919 55.3174 57.6881C55.4314 57.599 55.5659 57.5198 55.6431 57.404C56.01 56.8522 56.5331 56.7918 57.146 56.7974C59.9044 56.8235 62.6628 56.8086 65.4212 56.8086C65.5664 56.8086 65.7121 56.8161 65.8566 56.808C66.097 56.7943 66.1873 56.9051 66.1836 57.1399C66.1748 57.7204 66.2203 58.3046 66.1699 58.8813C66.0646 60.0945 64.9261 61.0761 63.6388 61.0842C61.9173 61.096 60.1959 61.0879 58.4744 61.0879Z" fill="white"/>
<path d="M258.055 48.7664C257.795 48.7664 257.547 48.8694 257.364 49.0526L251.959 54.457C251.578 54.8385 251.578 55.4571 251.959 55.8386L261.756 65.6351C262.137 66.0166 262.756 66.0166 263.137 65.6351L266.552 62.2203C266.934 61.8388 266.934 61.2202 266.552 60.8387L261.552 55.8386C261.171 55.4571 261.171 54.8385 261.552 54.457L265.575 50.4341C266.191 49.8187 265.755 48.7664 264.885 48.7664H258.055Z" fill="white"/>
<path d="M264.534 53.5163C263.918 54.1317 264.354 55.184 265.225 55.184H272.055C272.314 55.184 272.562 55.0811 272.745 54.8979L278.15 49.4934C278.532 49.1119 278.532 48.4933 278.15 48.1118L268.354 38.3154C267.972 37.9339 267.354 37.9339 266.972 38.3154L263.557 41.7305C263.175 42.112 263.175 42.7305 263.557 43.112L268.557 48.1119C268.938 48.4934 268.938 49.1119 268.557 49.4934L264.534 53.5163Z" fill="white"/>
</g>
<defs>
<filter id="filter0_d" x="6.11043" y="11.6864" width="305.056" height="199.36" filterUnits="userSpaceOnUse" color-interpolation-filters="sRGB">
<feFlood flood-opacity="0" result="BackgroundImageFix"/>
<feColorMatrix in="SourceAlpha" type="matrix" values="0 0 0 0 0 0 0 0 0 0 0 0 0 0 0 0 0 0 127 0"/>
<feOffset dy="12.81"/>
<feGaussianBlur stdDeviation="6.01471"/>
<feColorMatrix type="matrix" values="0 0 0 0 0 0 0 0 0 0 0 0 0 0 0 0 0 0 0.12 0"/>
<feBlend mode="normal" in2="BackgroundImageFix" result="effect1_dropShadow"/>
<feBlend mode="normal" in="SourceGraphic" in2="effect1_dropShadow" result="shape"/>
</filter>
<clipPath id="clip0">
<rect width="319" height="210" fill="white"/>
</clipPath>
</defs>
</svg>
